<svg width="175" height="104" viewBox="0 0 175 104" fill="none" xmlns="http://www.w3.org/2000/svg">
<path d="M46.9604 0.789429C43.5612 2.23579 40.5396 5.6795 39.4065 9.36426L38.9449 10.9484H36.5528C33.783 10.9484 30.8873 11.947 28.2434 13.8411C23.8369 17.0093 16.4928 28.2358 11.247 39.8755C6.04318 51.4464 4.74222 55.51 4.32255 61.5709C3.52519 73.5205 9.86212 79.3404 22.2422 78.0662C34.8741 76.7921 52.9616 67.5629 57.4101 60.0901C58.753 57.8861 58.8369 57.5417 58.6691 54.7523C58.5851 52.2729 58.3333 51.4119 57.2842 49.6901C54.3465 44.8689 49.5204 44.8345 44.1907 49.5868C41.8825 51.6874 41.295 52.6861 40.5816 55.8543C40.2458 57.3351 39.7003 58.7126 39.3645 58.8503C36.7626 60.2278 28.747 61.8119 26.313 61.4331C22.536 60.8477 21.0252 58.0239 21.8226 53.2027C22.494 49.3113 25.3897 39.91 27.0264 36.3629C29.0408 31.9894 30.8873 28.6835 31.1391 29.0623C31.265 29.2345 32.2302 31.5417 33.3214 34.2278C35.6715 40.0133 37.3501 42.4927 39.5744 43.4225C41.0012 44.0424 41.4209 44.0768 43.3933 43.698C47.8417 42.8715 50.3597 40.5298 52.4161 35.2609C54.6403 29.5444 55.4796 23.0702 55.5636 11.2927C55.6055 3.71658 55.5636 3.50996 54.6403 2.23579C52.7938 -0.140373 50.2758 -0.62249 46.9604 0.789429ZM52.3321 2.0636C52.6259 2.23579 53.1715 3.09671 53.5492 3.95764C54.2206 5.404 54.2626 6.19605 53.759 14.702C53.1715 25.6186 52.7518 28.6835 51.4089 32.8848C49.3106 39.4278 46.3729 42.2861 41.7566 42.2861C38.9449 42.2861 37.8537 40.8053 34.5804 32.747C32.6079 27.7881 31.6847 26.1007 31.0132 26.1007C30.3837 26.1007 26.7326 32.6093 24.8441 37.155C23.9209 39.3245 22.4521 43.5947 21.5708 46.6252C18.6331 56.7841 19.5144 61.1232 24.7182 62.5696C27.9916 63.4649 34.1607 62.5696 39.2806 60.4689L42.0923 59.298L42.2182 57.1974C42.3861 54.2702 43.6871 51.9629 46.3729 49.8623C49.982 47.0729 52.1643 46.7285 54.3046 48.6225C56.9485 50.8954 57.8717 55.7854 56.235 58.7815C52.8777 64.808 40.4557 72.2119 28.1175 75.5523C25.054 76.3788 23.8369 76.5166 19.5144 76.5166C13.723 76.551 12.2542 76.1378 9.52639 73.6583C5.32975 69.8358 4.86812 60.4689 8.47723 50.8954C11.7506 42.0795 16.8285 31.6451 20.8154 25.4119C27.2362 15.4252 31.6427 12.0159 37.6439 12.4292C39.1268 12.5186 39.7938 12.5895 40.1808 12.2939C40.5385 12.0206 40.6569 11.4341 40.9592 10.2596C42.3441 4.57751 48.9748 -0.209251 52.3321 2.0636Z" fill="black"/>
<path d="M46.9604 0.789429C43.5612 2.23579 40.5396 5.6795 39.4065 9.36426L38.9449 10.9484H36.5528C33.783 10.9484 30.8873 11.947 28.2434 13.8411C23.8369 17.0093 16.4928 28.2358 11.247 39.8755C6.04318 51.4464 4.74222 55.51 4.32255 61.5709C3.52519 73.5205 9.86212 79.3404 22.2422 78.0662C34.8741 76.7921 52.9616 67.5629 57.4101 60.0901C58.753 57.8861 58.8369 57.5417 58.6691 54.7523C58.5851 52.2729 58.3333 51.4119 57.2842 49.6901C54.3465 44.8689 49.5204 44.8345 44.1907 49.5868C41.8825 51.6874 41.295 52.6861 40.5816 55.8543C40.2458 57.3351 39.7003 58.7126 39.3645 58.8503C36.7626 60.2278 28.747 61.8119 26.313 61.4331C22.536 60.8477 21.0252 58.0239 21.8226 53.2027C22.494 49.3113 25.3897 39.91 27.0264 36.3629C29.0408 31.9894 30.8873 28.6835 31.1391 29.0623C31.265 29.2345 32.2302 31.5417 33.3214 34.2278C35.6715 40.0133 37.3501 42.4927 39.5744 43.4225C41.0012 44.0424 41.4209 44.0768 43.3933 43.698C47.8417 42.8715 50.3597 40.5298 52.4161 35.2609C54.6403 29.5444 55.4796 23.0702 55.5636 11.2927C55.6055 3.71658 55.5636 3.50996 54.6403 2.23579C52.7938 -0.140373 50.2758 -0.62249 46.9604 0.789429ZM52.3321 2.0636C52.6259 2.23579 53.1715 3.09671 53.5492 3.95764C54.2206 5.404 54.2626 6.19605 53.759 14.702C53.1715 25.6186 52.7518 28.6835 51.4089 32.8848C49.3106 39.4278 46.3729 42.2861 41.7566 42.2861C38.9449 42.2861 37.8537 40.8053 34.5804 32.747C32.6079 27.7881 31.6847 26.1007 31.0132 26.1007C30.3837 26.1007 26.7326 32.6093 24.8441 37.155C23.9209 39.3245 22.4521 43.5947 21.5708 46.6252C18.6331 56.7841 19.5144 61.1232 24.7182 62.5696C27.9916 63.4649 34.1607 62.5696 39.2806 60.4689L42.0923 59.298L42.2182 57.1974C42.3861 54.2702 43.6871 51.9629 46.3729 49.8623C49.982 47.0729 52.1643 46.7285 54.3046 48.6225C56.9485 50.8954 57.8717 55.7854 56.235 58.7815C52.8777 64.808 40.4557 72.2119 28.1175 75.5523C25.054 76.3788 23.8369 76.5166 19.5144 76.5166C13.723 76.551 12.2542 76.1378 9.52639 73.6583C5.32975 69.8358 4.86812 60.4689 8.47723 50.8954C11.7506 42.0795 16.8285 31.6451 20.8154 25.4119C27.2362 15.4252 31.6427 12.0159 37.6439 12.4292C39.1268 12.5186 39.7938 12.5895 40.1808 12.2939C40.5385 12.0206 40.6569 11.4341 40.9592 10.2596C42.3441 4.57751 48.9748 -0.209251 52.3321 2.0636Z" stroke="black"/>
<path d="M160.731 2.33905V4.0609H113.519C82.3381 4.0609 66.3069 4.16422 66.3069 4.40527C66.3069 4.64633 82.3381 4.74965 113.519 4.74965H160.731V7.6768V10.6039H120.234C93.5012 10.6039 79.7362 10.7073 79.7362 10.9483C79.7362 11.1894 93.5012 11.2927 120.234 11.2927H160.731V26.9616C160.731 37.1894 160.857 42.6304 161.151 42.6304C161.445 42.6304 161.571 37.1894 161.571 26.9616V11.2927H164.299H167.026V33.849C167.026 48.6569 167.152 56.4053 167.446 56.4053C167.74 56.4053 167.866 48.6569 167.866 33.849V11.2927H171.433C173.531 11.2927 175 11.1549 175 10.9483C175 10.7417 173.531 10.6039 171.433 10.6039H167.866V8.36554C167.866 7.09137 167.698 6.12713 167.446 6.12713C167.194 6.12713 167.026 7.09137 167.026 8.36554V10.6039H164.299H161.571V7.6768V4.74965H166.397C169.335 4.74965 171.223 4.6119 171.223 4.40527C171.223 4.19865 169.335 4.0609 166.397 4.0609H161.571V2.33905C161.571 1.37481 161.403 0.617195 161.151 0.617195C160.941 0.617195 160.731 1.37481 160.731 2.33905Z" fill="white"/>
<path d="M160.731 2.33905V4.0609H113.519C82.3381 4.0609 66.3069 4.16422 66.3069 4.40527C66.3069 4.64633 82.3381 4.74965 113.519 4.74965H160.731V7.6768V10.6039H120.234C93.5012 10.6039 79.7362 10.7073 79.7362 10.9483C79.7362 11.1894 93.5012 11.2927 120.234 11.2927H160.731V26.9616C160.731 37.1894 160.857 42.6304 161.151 42.6304C161.445 42.6304 161.571 37.1894 161.571 26.9616V11.2927H164.299H167.026V33.849C167.026 48.6569 167.152 56.4053 167.446 56.4053C167.74 56.4053 167.866 48.6569 167.866 33.849V11.2927H171.433C173.531 11.2927 175 11.1549 175 10.9483C175 10.7417 173.531 10.6039 171.433 10.6039H167.866V8.36554C167.866 7.09137 167.698 6.12713 167.446 6.12713C167.194 6.12713 167.026 7.09137 167.026 8.36554V10.6039H164.299H161.571V7.6768V4.74965H166.397C169.335 4.74965 171.223 4.6119 171.223 4.40527C171.223 4.19865 169.335 4.0609 166.397 4.0609H161.571V2.33905C161.571 1.37481 161.403 0.617195 161.151 0.617195C160.941 0.617195 160.731 1.37481 160.731 2.33905Z" stroke="black"/>
<path d="M10.4916 3.37218C10.4916 3.99205 10.1978 4.06092 7.34412 4.06092C5.53957 4.06092 4.19664 4.19867 4.19664 4.40529C4.19664 4.61191 5.53957 4.74966 7.34412 4.74966H10.4916V7.33244V9.91522H7.76379H5.03597V8.36556C5.03597 7.50463 4.86811 6.81589 4.61631 6.81589C4.40648 6.81589 4.19664 7.50463 4.19664 8.36556V9.91522H2.09832C0.965228 9.91522 0 10.053 0 10.2596C0 10.4318 0.965228 10.604 2.09832 10.604H4.19664V19.2132C4.19664 24.7232 4.36451 27.8225 4.61631 27.8225C4.86811 27.8225 5.03597 24.7232 5.03597 19.2132V10.604H7.76379H10.4916V16.1139C10.4916 19.5576 10.6595 21.6238 10.9113 21.6238C11.1631 21.6238 11.3309 19.5576 11.3309 16.1139V10.604H17.8357C21.9065 10.604 24.3405 10.4662 24.3405 10.2596C24.3405 10.053 21.9065 9.91522 17.8357 9.91522H11.3309V7.33244V4.74966H21.8225C28.5372 4.74966 32.3141 4.61191 32.3141 4.40529C32.3141 4.19867 28.5372 4.06092 21.8225 4.06092C11.6247 4.06092 11.3309 4.02648 11.3309 3.37218C11.3309 2.99337 11.1631 2.68344 10.9113 2.68344C10.7014 2.68344 10.4916 2.99337 10.4916 3.37218Z" fill="white"/>
<path d="M10.4916 3.37218C10.4916 3.99205 10.1978 4.06092 7.34412 4.06092C5.53957 4.06092 4.19664 4.19867 4.19664 4.40529C4.19664 4.61191 5.53957 4.74966 7.34412 4.74966H10.4916V7.33244V9.91522H7.76379H5.03597V8.36556C5.03597 7.50463 4.86811 6.81589 4.61631 6.81589C4.40648 6.81589 4.19664 7.50463 4.19664 8.36556V9.91522H2.09832C0.965228 9.91522 0 10.053 0 10.2596C0 10.4318 0.965228 10.604 2.09832 10.604H4.19664V19.2132C4.19664 24.7232 4.36451 27.8225 4.61631 27.8225C4.86811 27.8225 5.03597 24.7232 5.03597 19.2132V10.604H7.76379H10.4916V16.1139C10.4916 19.5576 10.6595 21.6238 10.9113 21.6238C11.1631 21.6238 11.3309 19.5576 11.3309 16.1139V10.604H17.8357C21.9065 10.604 24.3405 10.4662 24.3405 10.2596C24.3405 10.053 21.9065 9.91522 17.8357 9.91522H11.3309V7.33244V4.74966H21.8225C28.5372 4.74966 32.3141 4.61191 32.3141 4.40529C32.3141 4.19867 28.5372 4.06092 21.8225 4.06092C11.6247 4.06092 11.3309 4.02648 11.3309 3.37218C11.3309 2.99337 11.1631 2.68344 10.9113 2.68344C10.7014 2.68344 10.4916 2.99337 10.4916 3.37218Z" stroke="black"/>
<path d="M131.984 22.9669C127.536 25.0675 125.354 27.8914 118.597 40.2543C113.183 50.1721 108.693 57.6794 102.356 67.2529C95.3477 77.8596 94.0048 80.0635 93.1235 82.1298C92.0744 84.6781 92.0744 86.5033 93.1655 87.3986C94.97 88.8794 97.8657 87.9841 101.559 84.747C103.741 82.8529 104.748 81.441 108.567 75.0702C111.001 70.9722 113.309 67.1841 113.687 66.6675L114.4 65.7377L114.442 66.943C114.526 69.5258 117.422 71.5231 126.151 75.1046C129.55 76.5165 132.362 78.0662 136.601 80.8212C142.98 84.988 145.12 85.9867 148.351 86.2622C150.953 86.5033 153.303 85.7112 156.031 83.7827C158.759 81.8543 160.102 79.7192 160.06 77.4119C160.018 75.7933 159.598 74.7947 156.829 70.1801C149.82 58.4026 144.658 45.1443 141.175 30.2675C139.538 23.2423 138.699 21.9682 135.803 21.9682C134.67 21.9682 133.327 22.3125 131.984 22.9669ZM131.9 57.5417C132.53 59.3669 132.74 60.5033 132.446 60.4C126.613 58.2649 124.389 58.0238 121.493 59.1258C120.57 59.4702 119.059 60.3655 118.177 61.0887L116.541 62.4318L117.674 60.7099C118.083 60.0839 119.34 58.2096 120.873 55.9257C121.701 54.6917 122.609 53.3382 123.507 51.9973L128.124 44.9721L129.508 49.7589C130.222 52.3761 131.313 55.8887 131.9 57.5417Z" fill="black"/>
<path d="M131.984 22.9669C127.536 25.0675 125.354 27.8914 118.597 40.2543C113.183 50.1721 108.693 57.6794 102.356 67.2529C95.3477 77.8596 94.0048 80.0635 93.1235 82.1298C92.0744 84.6781 92.0744 86.5033 93.1655 87.3986C94.97 88.8794 97.8657 87.9841 101.559 84.747C103.741 82.8529 104.748 81.441 108.567 75.0702C111.001 70.9722 113.309 67.1841 113.687 66.6675L114.4 65.7377L114.442 66.943C114.526 69.5258 117.422 71.5231 126.151 75.1046C129.55 76.5165 132.362 78.0662 136.601 80.8212C142.98 84.988 145.12 85.9867 148.351 86.2622C150.953 86.5033 153.303 85.7112 156.031 83.7827C158.759 81.8543 160.102 79.7192 160.06 77.4119C160.018 75.7933 159.598 74.7947 156.829 70.1801C149.82 58.4026 144.658 45.1443 141.175 30.2675C139.538 23.2423 138.699 21.9682 135.803 21.9682C134.67 21.9682 133.327 22.3125 131.984 22.9669ZM131.9 57.5417C132.53 59.3669 132.74 60.5033 132.446 60.4C126.613 58.2649 124.389 58.0238 121.493 59.1258C120.57 59.4702 119.059 60.3655 118.177 61.0887L116.541 62.4318L117.674 60.7099C118.083 60.0839 119.34 58.2096 120.873 55.9257C121.701 54.6917 122.609 53.3382 123.507 51.9973L128.124 44.9721L129.508 49.7589C130.222 52.3761 131.313 55.8887 131.9 57.5417Z" stroke="black"/>
<path d="M56.8225 25.9974C56.8812 26.158 57.0586 26.7155 57.3078 27.4989C57.593 28.3953 57.9722 29.5873 58.3753 30.8186L59.7182 35.0543H61.4808H63.2854L63.9988 32.6437C64.3765 31.3007 64.8381 30.1643 65.0479 30.0609C65.2158 29.9921 65.6774 31.0596 66.0971 32.4715L66.8945 35.0543H68.6571H70.4196L71.6786 31.1629C73.057 27.0602 73.5303 25.8566 73.177 25.5197C72.9817 25.3334 72.5338 25.4119 71.8465 25.4119H70.1679L69.4125 27.9947C68.9928 29.4066 68.5312 30.5775 68.4053 30.5775C68.2374 30.5775 67.7758 29.4066 67.3561 27.9947L66.5587 25.3775L65.0899 25.4808C63.633 25.5833 63.6212 25.618 62.72 28.2736L62.6978 28.3391C61.8165 31.0252 61.6067 31.1285 61.0611 29.0278C60.1379 25.4464 60.0959 25.4119 58.2914 25.4119C56.8645 25.4119 56.6127 25.5153 56.8225 25.9974Z" fill="black"/>
<path d="M56.8225 25.9974C56.8812 26.158 57.0586 26.7155 57.3078 27.4989C57.593 28.3953 57.9722 29.5873 58.3753 30.8186L59.7182 35.0543H61.4808H63.2854L63.9988 32.6437C64.3765 31.3007 64.8381 30.1643 65.0479 30.0609C65.2158 29.9921 65.6774 31.0596 66.0971 32.4715L66.8945 35.0543H68.6571H70.4196L71.6786 31.1629C73.057 27.0602 73.5303 25.8566 73.177 25.5197C72.9817 25.3334 72.5338 25.4119 71.8465 25.4119H70.1679L69.4125 27.9947C68.9928 29.4066 68.5312 30.5775 68.4053 30.5775C68.2374 30.5775 67.7758 29.4066 67.3561 27.9947L66.5587 25.3775L65.0899 25.4808C63.633 25.5833 63.6212 25.618 62.72 28.2736L62.6978 28.3391C61.8165 31.0252 61.6067 31.1285 61.0611 29.0278C60.1379 25.4464 60.0959 25.4119 58.2914 25.4119C56.8645 25.4119 56.6127 25.5153 56.8225 25.9974Z" stroke="black"/>
<path d="M77.6379 30.2331V35.0543H82.506H87.3321L87.2062 34.0901C87.0803 33.1947 86.9964 33.1603 84.0587 33.057C81.1211 32.9537 80.9952 32.9192 80.9952 32.1272C80.9952 31.3007 81.1211 31.2662 83.3033 31.2662C85.5695 31.2662 85.6115 31.2662 85.6115 30.2331C85.6115 29.2 85.5695 29.2 83.3033 29.2C81.1211 29.2 80.9952 29.1656 80.9952 28.3391C80.9952 27.547 81.1211 27.5126 84.0587 27.4093C86.9964 27.306 87.0803 27.2715 87.2062 26.3417L87.3321 25.4119H82.506H77.6379V30.2331Z" fill="black"/>
<path d="M77.6379 30.2331V35.0543H82.506H87.3321L87.2062 34.0901C87.0803 33.1947 86.9964 33.1603 84.0587 33.057C81.1211 32.9537 80.9952 32.9192 80.9952 32.1272C80.9952 31.3007 81.1211 31.2662 83.3033 31.2662C85.5695 31.2662 85.6115 31.2662 85.6115 30.2331C85.6115 29.2 85.5695 29.2 83.3033 29.2C81.1211 29.2 80.9952 29.1656 80.9952 28.3391C80.9952 27.547 81.1211 27.5126 84.0587 27.4093C86.9964 27.306 87.0803 27.2715 87.2062 26.3417L87.3321 25.4119H82.506H77.6379V30.2331Z" stroke="black"/>
<path d="M91.4868 30.2331V35.0543H96.0192C99.9221 35.0543 100.677 34.951 101.265 34.4345C102.188 33.608 102.188 31.3351 101.265 30.5086C100.719 30.0265 100.677 29.7854 101.055 29.4755C101.853 28.8212 101.685 26.6172 100.803 25.9974C100.174 25.5153 99.1247 25.4119 95.7674 25.4119H91.4868V30.2331Z" fill="black"/>
<path d="M91.4868 30.2331V35.0543H96.0192C99.9221 35.0543 100.677 34.951 101.265 34.4345C102.188 33.608 102.188 31.3351 101.265 30.5086C100.719 30.0265 100.677 29.7854 101.055 29.4755C101.853 28.8212 101.685 26.6172 100.803 25.9974C100.174 25.5153 99.1247 25.4119 95.7674 25.4119H91.4868V30.2331Z" stroke="black"/>
<path d="M78.3513 47.1761C77.0084 49.69 75.9592 51.894 75.9592 52.0318C75.9592 52.204 76.6727 52.2728 77.512 52.204L79.0228 52.1006L81.289 47.6583C82.506 45.2132 83.5132 43.0781 83.5132 42.9404C83.5132 42.7682 82.8837 42.6304 82.1283 42.6304C81.7477 42.6304 81.4687 42.6304 81.2195 42.7167C80.5343 42.9538 80.0746 43.8428 78.3513 47.1761Z" fill="black"/>
<path d="M78.3513 47.1761C77.0084 49.69 75.9592 51.894 75.9592 52.0318C75.9592 52.204 76.6727 52.2728 77.512 52.204L79.0228 52.1006L81.289 47.6583C82.506 45.2132 83.5132 43.0781 83.5132 42.9404C83.5132 42.7682 82.8837 42.6304 82.1283 42.6304C81.7477 42.6304 81.4687 42.6304 81.2195 42.7167C80.5343 42.9538 80.0746 43.8428 78.3513 47.1761Z" stroke="black"/>
<path d="M71.0492 46.3496C67.9017 47.5205 67.5659 47.7271 67.5659 48.5881C67.5659 49.4834 67.9017 49.69 71.1331 50.9298C73.1055 51.653 74.8262 52.2728 74.9101 52.2728C75.036 52.2728 75.1199 51.7907 75.1199 51.2053C75.1199 50.2755 74.9101 50.1033 72.9377 49.4145L70.7554 48.6914L72.9377 47.8993C74.8681 47.2106 75.1199 47.004 75.1199 46.0741C75.1199 45.5232 74.994 45.041 74.8262 45.0755C74.6163 45.0755 72.9377 45.6609 71.0492 46.3496Z" fill="black"/>
<path d="M71.0492 46.3496C67.9017 47.5205 67.5659 47.7271 67.5659 48.5881C67.5659 49.4834 67.9017 49.69 71.1331 50.9298C73.1055 51.653 74.8262 52.2728 74.9101 52.2728C75.036 52.2728 75.1199 51.7907 75.1199 51.2053C75.1199 50.2755 74.9101 50.1033 72.9377 49.4145L70.7554 48.6914L72.9377 47.8993C74.8681 47.2106 75.1199 47.004 75.1199 46.0741C75.1199 45.5232 74.994 45.041 74.8262 45.0755C74.6163 45.0755 72.9377 45.6609 71.0492 46.3496Z" stroke="black"/>
<path d="M84.3525 46.0397C84.3525 47.0039 84.5623 47.2106 86.5348 47.8993L88.717 48.6914L86.5348 49.4145C84.5623 50.1033 84.3525 50.2755 84.3525 51.2053C84.3525 51.7907 84.4364 52.2728 84.5623 52.2728C84.6463 52.2728 86.3669 51.653 88.3393 50.9298C91.6127 49.69 91.9065 49.4834 91.9065 48.5881C91.9065 47.6927 91.6127 47.4861 88.6751 46.453C87.858 46.1723 87.0582 45.8916 86.4041 45.6621C85.6135 45.3847 85.0359 45.182 84.8981 45.1443C84.5204 45.0066 84.3525 45.3165 84.3525 46.0397Z" fill="black"/>
<path d="M84.3525 46.0397C84.3525 47.0039 84.5623 47.2106 86.5348 47.8993L88.717 48.6914L86.5348 49.4145C84.5623 50.1033 84.3525 50.2755 84.3525 51.2053C84.3525 51.7907 84.4364 52.2728 84.5623 52.2728C84.6463 52.2728 86.3669 51.653 88.3393 50.9298C91.6127 49.69 91.9065 49.4834 91.9065 48.5881C91.9065 47.6927 91.6127 47.4861 88.6751 46.453C87.858 46.1723 87.0582 45.8916 86.4041 45.6621C85.6135 45.3847 85.0359 45.182 84.8981 45.1443C84.5204 45.0066 84.3525 45.3165 84.3525 46.0397Z" stroke="black"/>
<path d="M60.012 64.6702V69.4914H64.2086C68.1535 69.4914 68.5312 69.4225 69.4544 68.6305C70.4197 67.8728 70.5036 67.5285 70.5036 64.6702C70.5036 61.8119 70.4197 61.4675 69.4544 60.7099C68.5312 59.9179 68.1535 59.849 64.2086 59.849H60.012V64.6702ZM67.2722 63.6026C67.482 64.4291 67.524 65.6344 67.3561 66.2543C67.1043 67.3907 67.0624 67.4252 65.048 67.4252H62.9496V65.9444C62.9496 65.1523 63.0755 63.9126 63.2434 63.1894L63.2463 63.1746C63.4952 61.915 63.5019 61.8812 65.2158 61.9841C66.8525 62.0874 66.9365 62.1219 67.2722 63.6026Z" fill="black"/>
<path d="M60.012 64.6702V69.4914H64.2086C68.1535 69.4914 68.5312 69.4225 69.4544 68.6305C70.4197 67.8728 70.5036 67.5285 70.5036 64.6702C70.5036 61.8119 70.4197 61.4675 69.4544 60.7099C68.5312 59.9179 68.1535 59.849 64.2086 59.849H60.012V64.6702ZM67.2722 63.6026C67.482 64.4291 67.524 65.6344 67.3561 66.2543C67.1043 67.3907 67.0624 67.4252 65.048 67.4252H62.9496V65.9444C62.9496 65.1523 63.0755 63.9126 63.2434 63.1894L63.2463 63.1746C63.4952 61.915 63.5019 61.8812 65.2158 61.9841C66.8525 62.0874 66.9365 62.1219 67.2722 63.6026Z" stroke="black"/>
<path d="M75.5396 64.6702V69.4914H80.1559H84.7722V68.4583V67.4252H81.6247C78.5611 67.4252 78.4772 67.3907 78.4772 66.5642C78.4772 65.7377 78.6031 65.7033 80.9952 65.7033H83.5132V64.6702V63.6371H80.9952C78.6031 63.6371 78.4772 63.6026 78.4772 62.7762C78.4772 61.9497 78.5611 61.9152 81.6247 61.9152H84.7722V60.8821V59.849H80.1559H75.5396V64.6702Z" fill="black"/>
<path d="M75.5396 64.6702V69.4914H80.1559H84.7722V68.4583V67.4252H81.6247C78.5611 67.4252 78.4772 67.3907 78.4772 66.5642C78.4772 65.7377 78.6031 65.7033 80.9952 65.7033H83.5132V64.6702V63.6371H80.9952C78.6031 63.6371 78.4772 63.6026 78.4772 62.7762C78.4772 61.9497 78.5611 61.9152 81.6247 61.9152H84.7722V60.8821V59.849H80.1559H75.5396V64.6702Z" stroke="black"/>
<path d="M88.5492 60.2622C88.5911 60.5033 89.4724 62.6384 90.5636 65.0146L92.536 69.3192L94.4245 69.4225L96.3129 69.5258L97.446 67.0119C98.0336 65.6344 99.0408 63.4305 99.6283 62.1563L100.719 59.8146L98.9568 59.9179L97.1942 60.0212L95.8513 63.1205L94.5084 66.2199L93.8789 65.0146C93.5432 64.3603 92.9137 62.9139 92.494 61.8119C91.7806 59.8834 91.7386 59.849 90.1439 59.849C89.1367 59.849 88.5492 60.0212 88.5492 60.2622Z" fill="black"/>
<path d="M88.5492 60.2622C88.5911 60.5033 89.4724 62.6384 90.5636 65.0146L92.536 69.3192L94.4245 69.4225L96.3129 69.5258L97.446 67.0119C98.0336 65.6344 99.0408 63.4305 99.6283 62.1563L100.719 59.8146L98.9568 59.9179L97.1942 60.0212L95.8513 63.1205L94.5084 66.2199L93.8789 65.0146C93.5432 64.3603 92.9137 62.9139 92.494 61.8119C91.7806 59.8834 91.7386 59.849 90.1439 59.849C89.1367 59.849 88.5492 60.0212 88.5492 60.2622Z" stroke="black"/>
<path d="M167.026 78.445V90.498H163.669H160.312V89.4649C160.312 88.8795 160.144 88.4318 159.892 88.4318C159.682 88.4318 159.472 88.8795 159.472 89.4649V90.498H138.07C124.095 90.498 116.667 90.6013 116.667 90.8424C116.667 91.0834 124.095 91.1867 138.07 91.1867H159.472V93.253V95.3192H130.096C110.791 95.3192 100.719 95.4225 100.719 95.6636C100.719 95.9046 110.791 96.0079 130.096 96.0079H159.472V98.2463C159.472 99.5205 159.64 100.485 159.892 100.485C160.144 100.485 160.312 99.5205 160.312 98.2463V96.0079H162.2C163.249 96.0079 164.089 95.8358 164.089 95.6636C164.089 95.4569 163.249 95.3192 162.2 95.3192H160.312V93.253V91.1867H163.669H167.026V97.5576C167.026 101.587 167.194 103.928 167.446 103.928C167.698 103.928 167.866 101.587 167.866 97.5576V91.1867H169.544C170.468 91.1867 171.223 91.0146 171.223 90.8424C171.223 90.6358 170.468 90.498 169.544 90.498H167.866V78.445C167.866 70.6278 167.698 66.392 167.446 66.392C167.194 66.392 167.026 70.6278 167.026 78.445Z" fill="white"/>
<path d="M167.026 78.445V90.498H163.669H160.312V89.4649C160.312 88.8795 160.144 88.4318 159.892 88.4318C159.682 88.4318 159.472 88.8795 159.472 89.4649V90.498H138.07C124.095 90.498 116.667 90.6013 116.667 90.8424C116.667 91.0834 124.095 91.1867 138.07 91.1867H159.472V93.253V95.3192H130.096C110.791 95.3192 100.719 95.4225 100.719 95.6636C100.719 95.9046 110.791 96.0079 130.096 96.0079H159.472V98.2463C159.472 99.5205 159.64 100.485 159.892 100.485C160.144 100.485 160.312 99.5205 160.312 98.2463V96.0079H162.2C163.249 96.0079 164.089 95.8358 164.089 95.6636C164.089 95.4569 163.249 95.3192 162.2 95.3192H160.312V93.253V91.1867H163.669H167.026V97.5576C167.026 101.587 167.194 103.928 167.446 103.928C167.698 103.928 167.866 101.587 167.866 97.5576V91.1867H169.544C170.468 91.1867 171.223 91.0146 171.223 90.8424C171.223 90.6358 170.468 90.498 169.544 90.498H167.866V78.445C167.866 70.6278 167.698 66.392 167.446 66.392C167.194 66.392 167.026 70.6278 167.026 78.445Z" stroke="black"/>
<path d="M4.19666 84.2993V90.498H2.30817C1.25901 90.498 0.419678 90.6357 0.419678 90.8423C0.419678 91.0145 1.25901 91.1867 2.30817 91.1867H4.19666V94.8026C4.19666 96.9721 4.36452 98.4185 4.61632 98.4185C4.86812 98.4185 5.03598 96.9721 5.03598 94.8026V91.1867H7.55397H10.072V93.4251V95.6635H8.60313C7.80577 95.6635 7.13431 95.8013 7.13431 96.0079C7.13431 96.1801 7.80577 96.3523 8.60313 96.3523H10.072V98.5907C10.072 99.8649 10.2398 100.829 10.4916 100.829C10.7434 100.829 10.9113 99.8649 10.9113 98.5907V96.3523H45.3237C67.9856 96.3523 79.7362 96.249 79.7362 96.0079C79.7362 95.7668 67.9856 95.6635 45.3237 95.6635H10.9113V93.4251V91.1867H37.56C55.06 91.1867 64.2086 91.0834 64.2086 90.8423C64.2086 90.6013 55.06 90.498 37.56 90.498H10.9113V86.0212C10.9113 83.2662 10.7434 81.5443 10.4916 81.5443C10.2398 81.5443 10.072 83.2662 10.072 86.0212V90.498H7.55397H5.03598V84.2993C5.03598 80.4079 4.86812 78.1006 4.61632 78.1006C4.36452 78.1006 4.19666 80.4079 4.19666 84.2993Z" fill="white"/>
<path d="M4.19666 84.2993V90.498H2.30817C1.25901 90.498 0.419678 90.6357 0.419678 90.8423C0.419678 91.0145 1.25901 91.1867 2.30817 91.1867H4.19666V94.8026C4.19666 96.9721 4.36452 98.4185 4.61632 98.4185C4.86812 98.4185 5.03598 96.9721 5.03598 94.8026V91.1867H7.55397H10.072V93.4251V95.6635H8.60313C7.80577 95.6635 7.13431 95.8013 7.13431 96.0079C7.13431 96.1801 7.80577 96.3523 8.60313 96.3523H10.072V98.5907C10.072 99.8649 10.2398 100.829 10.4916 100.829C10.7434 100.829 10.9113 99.8649 10.9113 98.5907V96.3523H45.3237C67.9856 96.3523 79.7362 96.249 79.7362 96.0079C79.7362 95.7668 67.9856 95.6635 45.3237 95.6635H10.9113V93.4251V91.1867H37.56C55.06 91.1867 64.2086 91.0834 64.2086 90.8423C64.2086 90.6013 55.06 90.498 37.56 90.498H10.9113V86.0212C10.9113 83.2662 10.7434 81.5443 10.4916 81.5443C10.2398 81.5443 10.072 83.2662 10.072 86.0212V90.498H7.55397H5.03598V84.2993C5.03598 80.4079 4.86812 78.1006 4.61632 78.1006C4.36452 78.1006 4.19666 80.4079 4.19666 84.2993Z" stroke="black"/>
</svg>
