<svg width="417" height="300" viewBox="0 0 417 300" fill="none" xmlns="http://www.w3.org/2000/svg">
<g style="mix-blend-mode:hard-light" filter="url(#filter0_d)">
<path d="M72 72.25L72.5 72L72 72.25ZM118.25 137C119.75 136.333 121.333 136 123 136C127 136 130.167 138.417 132.5 143.25C135 148.083 136.25 153.333 136.25 159C136.25 162 135.833 164.583 135 166.75C132.5 173.25 128.417 179.167 122.75 184.5C117.083 189.833 110.25 195.25 102.25 200.75C94.4167 205.917 85.1667 210.667 74.5 215C64 219.167 54.25 221.25 45.25 221.25C31.75 221.25 22.75 215.917 18.25 205.25C15.5833 199.25 14.25 191.667 14.25 182.5C14.25 171 16.0833 159.167 19.75 147C23.5833 134.667 28.75 120.083 35.25 103.25C41.75 86.75 49.5 71.0833 58.5 56.25C67.5 41.25 77.4167 33.75 88.25 33.75C91.0833 33.75 93.6667 34.3333 96 35.5C97.8333 22.8333 102.083 13.5 108.75 7.49999C112.917 3.99999 116.5 2.25 119.5 2.25C123 2.25 125.667 4.33333 127.5 8.49999C128.667 11.5 129.25 15.3333 129.25 20C129.25 22.3333 129.083 25.5 128.75 29.5L128.5 37C128.167 49.1667 127.417 61.3333 126.25 73.5C125.25 84.5 122.833 95 119 105C115.167 115 109.083 120.417 100.75 121.25C96.5833 121.75 93.1667 119.583 90.5 114.75C88 109.917 85.3333 102.833 82.5 93.5C80.6667 87.5 79.0833 83 77.75 80C76.5833 76.8333 75.25 74.5 73.75 73C64.25 89.8333 57.25 108.25 52.75 128.25L51.5 133.25C50.1667 139.25 49.0833 144.25 48.25 148.25C47.5833 152.083 47.25 155.917 47.25 159.75C47.25 168.25 49.4167 174.083 53.75 177.25C56.75 179.75 61 181 66.5 181C70.1667 181 74.1667 180.417 78.5 179.25C82.8333 178.25 87.4167 176.667 92.25 174.5C93.75 173.833 96 172.667 99 171C100.333 170.833 101 170.333 101 169.5C101 168.833 100.583 168.167 99.75 167.5C100.083 166 100.417 163.917 100.75 161.25C101.083 158.75 101.5 156.667 102 155C102.5 153.333 103.333 151.583 104.5 149.75C108.833 143.417 113.417 139.167 118.25 137Z" fill="black"/>
<path d="M118.25 137L117.438 135.172L117.432 135.175L118.25 137ZM132.5 143.25L130.699 144.119L130.711 144.144L130.724 144.169L132.5 143.25ZM135 166.75L133.133 166.032L133.133 166.032L135 166.75ZM122.75 184.5L121.379 183.044L121.379 183.044L122.75 184.5ZM102.25 200.75L103.351 202.42L103.367 202.409L103.383 202.398L102.25 200.75ZM74.5 215L75.2377 216.859L75.2452 216.856L75.2528 216.853L74.5 215ZM18.25 205.25L20.0927 204.473L20.0853 204.455L20.0776 204.438L18.25 205.25ZM19.75 147L17.8401 146.406L17.8376 146.415L17.8351 146.423L19.75 147ZM35.25 103.25L33.3891 102.517L33.3843 102.53L35.25 103.25ZM58.5 56.25L60.2099 57.2875L60.215 57.279L58.5 56.25ZM96 35.5L95.1056 37.2888L97.5827 38.5274L97.9794 35.7865L96 35.5ZM108.75 7.49999L107.464 5.96858L107.437 5.99055L107.412 6.0134L108.75 7.49999ZM127.5 8.49999L129.364 7.7751L129.348 7.73444L129.331 7.69451L127.5 8.49999ZM128.75 29.5L126.757 29.3339L126.753 29.3836L126.751 29.4334L128.75 29.5ZM128.5 37L126.501 36.9334L126.501 36.9452L128.5 37ZM126.25 73.5L124.259 73.3091L124.258 73.3189L126.25 73.5ZM119 105L117.133 104.284L117.133 104.284L119 105ZM100.75 121.25L100.551 119.26L100.531 119.262L100.512 119.264L100.75 121.25ZM90.5 114.75L88.7236 115.669L88.7359 115.693L88.7489 115.716L90.5 114.75ZM82.5 93.5L84.4138 92.919L84.4127 92.9156L82.5 93.5ZM77.75 80L75.8733 80.6914L75.8959 80.7526L75.9224 80.8123L77.75 80ZM73.75 73L75.1642 71.5858L73.3024 69.7239L72.0082 72.017L73.75 73ZM52.75 128.25L54.6903 128.735L54.696 128.712L54.7012 128.689L52.75 128.25ZM51.5 133.25L49.5597 132.765L49.5533 132.79L49.5476 132.816L51.5 133.25ZM48.25 148.25L46.292 147.842L46.2853 147.875L46.2796 147.907L48.25 148.25ZM53.75 177.25L55.0304 175.714L54.9815 175.673L54.93 175.635L53.75 177.25ZM78.5 179.25L78.0503 177.301L78.015 177.309L77.9801 177.319L78.5 179.25ZM92.25 174.5L91.4377 172.672L91.4319 172.675L92.25 174.5ZM99 171L98.7519 169.015L98.3674 169.064L98.0287 169.252L99 171ZM99.75 167.5L97.7976 167.066L97.5272 168.283L98.5006 169.062L99.75 167.5ZM100.75 161.25L98.7675 160.986L98.7665 160.994L98.7654 161.002L100.75 161.25ZM102 155L100.084 154.425L100.084 154.425L102 155ZM104.5 149.75L102.849 148.621L102.831 148.648L102.813 148.676L104.5 149.75ZM72.8944 74.0388L73.3944 73.7889L71.6056 70.2111L71.1056 70.4611L72.8944 74.0388ZM71.6056 70.2111L71.1056 70.4611L72.8944 74.0388L73.3944 73.7889L71.6056 70.2111ZM119.062 138.828C120.303 138.276 121.609 138 123 138V134C121.058 134 119.197 134.39 117.438 135.172L119.062 138.828ZM123 138C125.966 138 128.565 139.7 130.699 144.119L134.301 142.38C131.768 137.133 128.034 134 123 134V138ZM130.724 144.169C133.071 148.706 134.25 153.639 134.25 159H138.25C138.25 153.027 136.929 147.46 134.276 142.331L130.724 144.169ZM134.25 159C134.25 161.823 133.857 164.151 133.133 166.032L136.867 167.468C137.81 165.016 138.25 162.177 138.25 159H134.25ZM133.133 166.032C130.753 172.22 126.853 177.892 121.379 183.044L124.121 185.956C129.98 180.442 134.247 174.28 136.867 167.468L133.133 166.032ZM121.379 183.044C115.802 188.292 109.053 193.646 101.117 199.102L103.383 202.398C111.447 196.854 118.364 191.374 124.121 185.956L121.379 183.044ZM101.149 199.08C93.4467 204.161 84.3183 208.853 73.7473 213.147L75.2528 216.853C86.015 212.481 95.3866 207.673 103.351 202.42L101.149 199.08ZM73.7623 213.141C63.4394 217.237 53.942 219.25 45.25 219.25V223.25C54.558 223.25 64.5606 221.096 75.2377 216.859L73.7623 213.141ZM45.25 219.25C38.7567 219.25 33.5086 217.967 29.3946 215.529C25.3021 213.104 22.195 209.456 20.0927 204.473L16.4073 206.027C18.805 211.711 22.4479 216.062 27.3554 218.971C32.2414 221.866 38.2433 223.25 45.25 223.25V219.25ZM20.0776 204.438C17.5602 198.774 16.25 191.49 16.25 182.5H12.25C12.25 191.843 13.6064 199.726 16.4224 206.062L20.0776 204.438ZM16.25 182.5C16.25 171.215 18.0488 159.576 21.6649 147.577L17.8351 146.423C14.1179 158.757 12.25 170.785 12.25 182.5H16.25ZM21.6599 147.594C25.4759 135.316 30.6261 120.777 37.1157 103.97L33.3843 102.53C26.8739 119.39 21.6908 134.017 17.8401 146.406L21.6599 147.594ZM37.1108 103.983C43.5702 87.5863 51.27 72.0217 60.2099 57.2874L56.7901 55.2125C47.73 70.145 39.9299 85.9137 33.3892 102.517L37.1108 103.983ZM60.215 57.279C69.0859 42.4941 78.4762 35.75 88.25 35.75V31.75C76.3571 31.75 65.9141 40.0059 56.785 55.221L60.215 57.279ZM88.25 35.75C90.8001 35.75 93.0733 36.2727 95.1056 37.2888L96.8944 33.7111C94.26 32.3939 91.3666 31.75 88.25 31.75V35.75ZM97.9794 35.7865C99.7738 23.3886 103.891 14.5639 110.088 8.98658L107.412 6.0134C100.276 12.4361 95.8929 22.2781 94.0206 35.2135L97.9794 35.7865ZM110.036 9.0314C114.103 5.61522 117.225 4.25 119.5 4.25V0.249995C115.775 0.249995 111.73 2.38477 107.464 5.96858L110.036 9.0314ZM119.5 4.25C120.82 4.25 121.925 4.63159 122.894 5.38854C123.892 6.16874 124.842 7.42453 125.669 9.30547L129.331 7.69451C128.325 5.40879 127.024 3.53958 125.356 2.23644C123.659 0.910069 121.68 0.249995 119.5 0.249995V4.25ZM125.636 9.22488C126.682 11.9147 127.25 15.4793 127.25 20H131.25C131.25 15.1873 130.651 11.0853 129.364 7.7751L125.636 9.22488ZM127.25 20C127.25 22.2524 127.088 25.356 126.757 29.3339L130.743 29.6661C131.078 25.644 131.25 22.4143 131.25 20H127.25ZM126.751 29.4334L126.501 36.9334L130.499 37.0666L130.749 29.5666L126.751 29.4334ZM126.501 36.9452C126.169 49.0662 125.421 61.1875 124.259 73.3091L128.241 73.6909C129.412 61.4792 130.165 49.2671 130.499 37.0548L126.501 36.9452ZM124.258 73.3189C123.274 84.1416 120.898 94.4612 117.133 104.284L120.867 105.716C124.769 95.5388 127.226 84.8584 128.242 73.6811L124.258 73.3189ZM117.133 104.284C113.48 113.812 107.912 118.524 100.551 119.26L100.949 123.24C110.255 122.309 116.853 116.188 120.867 105.716L117.133 104.284ZM100.512 119.264C98.8675 119.462 97.4372 119.138 96.1336 118.311C94.7937 117.461 93.4786 116.009 92.2512 113.784L88.7489 115.716C90.188 118.325 91.9146 120.372 93.9914 121.689C96.1044 123.029 98.4658 123.538 100.988 123.236L100.512 119.264ZM92.2764 113.831C89.8598 109.159 87.2348 102.212 84.4138 92.919L80.5862 94.081C83.4319 103.455 86.1402 110.674 88.7236 115.669L92.2764 113.831ZM84.4127 92.9156C82.5729 86.8943 80.9614 82.3011 79.5776 79.1877L75.9224 80.8123C77.2053 83.6989 78.7605 88.1057 80.5873 94.0844L84.4127 92.9156ZM79.6267 79.3086C78.4126 76.0131 76.9544 73.376 75.1642 71.5858L72.3358 74.4142C73.5456 75.624 74.7541 77.6535 75.8733 80.6914L79.6267 79.3086ZM72.0082 72.017C62.4066 89.0305 55.3391 107.632 50.7988 127.811L54.7012 128.689C59.1609 108.868 66.0934 90.6362 75.4918 73.983L72.0082 72.017ZM50.8097 127.765L49.5597 132.765L53.4403 133.735L54.6903 128.735L50.8097 127.765ZM49.5476 132.816C48.2132 138.821 47.1278 143.83 46.292 147.842L50.208 148.658C51.0388 144.67 52.1201 139.679 53.4524 133.684L49.5476 132.816ZM46.2796 147.907C45.5935 151.852 45.25 155.8 45.25 159.75H49.25C49.25 156.033 49.5731 152.315 50.2204 148.593L46.2796 147.907ZM45.25 159.75C45.25 168.509 47.4771 175.143 52.57 178.865L54.93 175.635C51.3563 173.024 49.25 167.991 49.25 159.75H45.25ZM52.4696 178.786C55.9513 181.688 60.7206 183 66.5 183V179C61.2794 179 57.5487 177.812 55.0304 175.714L52.4696 178.786ZM66.5 183C70.3763 183 74.5534 182.384 79.02 181.181L77.9801 177.319C73.7799 178.45 69.9571 179 66.5 179V183ZM78.9497 181.199C83.4308 180.165 88.138 178.535 93.0681 176.325L91.4319 172.675C86.6953 174.798 82.2358 176.335 78.0503 177.301L78.9497 181.199ZM93.0623 176.328C94.648 175.623 96.9626 174.42 99.9713 172.748L98.0287 169.252C95.0374 170.914 92.8521 172.044 91.4377 172.672L93.0623 176.328ZM99.2481 172.985C100.07 172.882 100.967 172.65 101.7 172.1C102.537 171.472 103 170.546 103 169.5H99C99 169.435 99.015 169.31 99.0862 169.168C99.1573 169.026 99.2479 168.939 99.3 168.9C99.3439 168.867 99.3401 168.883 99.2425 168.915C99.1461 168.947 98.9883 168.986 98.7519 169.015L99.2481 172.985ZM103 169.5C103 167.937 102.023 166.757 100.999 165.938L98.5006 169.062C98.7999 169.301 98.9369 169.473 98.9915 169.56C99.0373 169.633 99 169.604 99 169.5H103ZM101.702 167.934C102.056 166.344 102.398 164.188 102.735 161.498L98.7654 161.002C98.4351 163.645 98.1109 165.656 97.7976 167.066L101.702 167.934ZM102.732 161.514C103.057 159.077 103.456 157.106 103.916 155.575L100.084 154.425C99.5437 156.227 99.1093 158.423 98.7675 160.986L102.732 161.514ZM103.916 155.575C104.352 154.121 105.096 152.539 106.187 150.824L102.813 148.676C101.571 150.628 100.648 152.545 100.084 154.425L103.916 155.575ZM106.151 150.879C110.364 144.721 114.69 140.788 119.068 138.825L117.432 135.175C112.144 137.545 107.303 142.112 102.849 148.621L106.151 150.879Z" fill="#FDFBFB"/>
</g>
<path d="M307.75 170C310.417 171 313.417 172.417 316.75 174.25C311.75 156.25 307.917 140.917 305.25 128.25C298.75 141.25 290.167 157.083 279.5 175.75C278.667 177.583 277.25 180.167 275.25 183.5C281.917 173.167 289.5 168 298 168C301.333 168 304.583 168.667 307.75 170ZM347.75 134.5C354.583 157.667 362.667 179.25 372 199.25L374.75 204.75C377.083 208.75 378.833 212.167 380 215C381.167 217.667 381.75 220.417 381.75 223.25C381.75 227.583 379.917 232.083 376.25 236.75C372.583 241.25 368.583 244.583 364.25 246.75C361.583 248.25 358.75 249 355.75 249C350.75 249 345.75 247.5 340.75 244.5C335.917 241.333 330.083 236.833 323.25 231C318.417 227 314.75 224.167 312.25 222.5C310.583 221.333 307.083 219.5 301.75 217C292.417 212.333 285.167 208.167 280 204.5C275 200.833 272.5 196.5 272.5 191.5C272.5 190.167 273.083 188.167 274.25 185.5C271.083 191.167 266.667 199.833 261 211.5C254 225.667 250 233.583 249 235.25C247 238.917 243.75 243 239.25 247.5C234.75 251.833 230.583 254 226.75 254C224.75 254 223 253.25 221.5 251.75C220.333 250.583 219.75 248.75 219.75 246.25C219.75 239.25 225.083 226.833 235.75 209C236.417 207.667 237.5 205.75 239 203.25L244.5 192.75C255.833 171.417 264.083 155.333 269.25 144.5C272.25 138.167 276.583 128.667 282.25 116L291.25 95.75C294.917 87.9167 298.583 81.4167 302.25 76.25C305.917 70.9167 310.5 66.8333 316 64C318.833 62.5 321.5 61.75 324 61.75C327.333 61.75 329.75 63.3333 331.25 66.5C332.75 69.5 334.083 74 335.25 80C338.25 97.1667 342.417 115.333 347.75 134.5Z" fill="black"/>
<path d="M307.75 170L306.974 171.843L307.011 171.859L307.048 171.873L307.75 170ZM316.75 174.25L315.786 176.002L319.948 178.292L318.677 173.715L316.75 174.25ZM305.25 128.25L307.207 127.838L306.026 122.226L303.461 127.356L305.25 128.25ZM279.5 175.75L277.764 174.758L277.718 174.838L277.679 174.922L279.5 175.75ZM275.25 183.5L273.535 182.471L276.931 184.584L275.25 183.5ZM347.75 134.5L345.823 135.036L345.827 135.051L345.832 135.066L347.75 134.5ZM372 199.25L370.188 200.096L370.199 200.12L370.211 200.144L372 199.25ZM374.75 204.75L372.961 205.644L372.99 205.702L373.022 205.758L374.75 204.75ZM380 215L378.151 215.762L378.159 215.782L378.168 215.802L380 215ZM376.25 236.75L377.8 238.013L377.812 238L377.823 237.986L376.25 236.75ZM364.25 246.75L363.356 244.961L363.312 244.983L363.269 245.007L364.25 246.75ZM340.75 244.5L339.654 246.173L339.687 246.195L339.721 246.215L340.75 244.5ZM323.25 231L324.549 229.479L324.537 229.469L324.525 229.459L323.25 231ZM312.25 222.5L311.103 224.138L311.122 224.151L311.141 224.164L312.25 222.5ZM301.75 217L300.856 218.789L300.878 218.8L300.901 218.811L301.75 217ZM280 204.5L278.817 206.113L278.83 206.122L278.843 206.131L280 204.5ZM274.25 185.5L276.082 186.302L272.504 184.524L274.25 185.5ZM261 211.5L262.793 212.386L262.799 212.374L261 211.5ZM249 235.25L247.285 234.221L247.264 234.256L247.244 234.292L249 235.25ZM239.25 247.5L240.637 248.941L240.651 248.928L240.664 248.914L239.25 247.5ZM221.5 251.75L222.914 250.336L222.914 250.336L221.5 251.75ZM235.75 209L237.466 210.027L237.505 209.962L237.539 209.894L235.75 209ZM239 203.25L240.715 204.279L240.745 204.229L240.772 204.178L239 203.25ZM244.5 192.75L242.734 191.812L242.728 191.822L244.5 192.75ZM269.25 144.5L271.055 145.361L271.057 145.356L269.25 144.5ZM282.25 116L284.076 116.817L284.078 116.812L282.25 116ZM291.25 95.75L289.439 94.9021L289.43 94.9198L289.422 94.9377L291.25 95.75ZM302.25 76.25L303.881 77.4075L303.89 77.3953L303.898 77.383L302.25 76.25ZM316 64L316.916 65.7779L316.926 65.7728L316.936 65.7676L316 64ZM331.25 66.5L329.443 67.3562L329.452 67.3754L329.461 67.3944L331.25 66.5ZM335.25 80L337.22 79.6557L337.217 79.6369L337.213 79.6182L335.25 80ZM307.048 171.873C309.6 172.83 312.511 174.201 315.786 176.002L317.714 172.498C314.322 170.632 311.233 169.17 308.452 168.127L307.048 171.873ZM318.677 173.715C313.684 155.739 309.862 140.45 307.207 127.838L303.293 128.662C305.971 141.384 309.816 156.761 314.823 174.785L318.677 173.715ZM303.461 127.356C296.983 140.311 288.42 156.11 277.764 174.758L281.236 176.742C291.914 158.057 300.517 142.189 307.039 129.144L303.461 127.356ZM277.679 174.922C276.894 176.65 275.525 179.155 273.535 182.471L276.965 184.529C278.975 181.179 280.439 178.517 281.321 176.578L277.679 174.922ZM276.931 184.584C283.407 174.546 290.453 170 298 170V166C288.547 166 280.427 171.787 273.569 182.416L276.931 184.584ZM298 170C301.059 170 304.045 170.61 306.974 171.843L308.526 168.157C305.122 166.723 301.608 166 298 166V170ZM345.832 135.066C352.691 158.319 360.808 179.997 370.188 200.096L373.812 198.404C364.525 178.503 356.476 157.014 349.668 133.934L345.832 135.066ZM370.211 200.144L372.961 205.644L376.539 203.856L373.789 198.356L370.211 200.144ZM373.022 205.758C375.33 209.714 377.032 213.044 378.151 215.762L381.849 214.238C380.635 211.289 378.836 207.786 376.478 203.742L373.022 205.758ZM378.168 215.802C379.227 218.223 379.75 220.7 379.75 223.25H383.75C383.75 220.133 383.106 217.111 381.832 214.198L378.168 215.802ZM379.75 223.25C379.75 226.995 378.168 231.071 374.677 235.514L377.823 237.986C381.665 233.095 383.75 228.172 383.75 223.25H379.75ZM374.7 235.487C371.177 239.81 367.39 242.944 363.356 244.961L365.144 248.539C369.776 246.223 373.99 242.69 377.8 238.013L374.7 235.487ZM363.269 245.007C360.896 246.342 358.399 247 355.75 247V251C359.101 251 362.271 250.158 365.231 248.493L363.269 245.007ZM355.75 247C351.169 247 346.521 245.63 341.779 242.785L339.721 246.215C344.98 249.37 350.331 251 355.75 251V247ZM341.846 242.827C337.111 239.725 331.349 235.284 324.549 229.479L321.951 232.521C328.818 238.383 334.723 242.942 339.654 246.173L341.846 242.827ZM324.525 229.459C319.683 225.452 315.95 222.563 313.359 220.836L311.141 224.164C313.55 225.77 317.151 228.548 321.975 232.541L324.525 229.459ZM313.397 220.862C311.566 219.58 307.91 217.679 302.599 215.189L300.901 218.811C306.257 221.321 309.6 223.087 311.103 224.138L313.397 220.862ZM302.644 215.211C293.352 210.565 286.205 206.451 281.157 202.869L278.843 206.131C284.129 209.882 291.481 214.102 300.856 218.789L302.644 215.211ZM281.183 202.887C276.559 199.496 274.5 195.709 274.5 191.5H270.5C270.5 197.291 273.441 202.17 278.817 206.113L281.183 202.887ZM274.5 191.5C274.5 190.615 274.926 188.945 276.082 186.302L272.418 184.698C271.241 187.388 270.5 189.719 270.5 191.5H274.5ZM272.504 184.524C269.308 190.243 264.871 198.952 259.201 210.626L262.799 212.374C268.462 200.715 272.858 192.09 275.996 186.476L272.504 184.524ZM259.207 210.614C252.179 224.838 248.23 232.645 247.285 234.221L250.715 236.279C251.77 234.521 255.821 226.495 262.793 212.386L259.207 210.614ZM247.244 234.292C245.37 237.728 242.264 241.658 237.836 246.086L240.664 248.914C245.236 244.342 248.63 240.105 250.756 236.208L247.244 234.292ZM237.863 246.059C233.513 250.248 229.823 252 226.75 252V256C231.344 256 235.987 253.418 240.637 248.941L237.863 246.059ZM226.75 252C225.315 252 224.064 251.486 222.914 250.336L220.086 253.164C221.936 255.014 224.185 256 226.75 256V252ZM222.914 250.336C222.278 249.699 221.75 248.489 221.75 246.25H217.75C217.75 249.011 218.389 251.468 220.086 253.164L222.914 250.336ZM221.75 246.25C221.75 243.171 222.947 238.625 225.588 232.477C228.206 226.381 232.157 218.903 237.466 210.027L234.034 207.973C228.676 216.93 224.627 224.577 221.912 230.898C219.22 237.167 217.75 242.329 217.75 246.25H221.75ZM237.539 209.894C238.17 208.632 239.222 206.768 240.715 204.279L237.285 202.221C235.778 204.732 234.663 206.702 233.961 208.106L237.539 209.894ZM240.772 204.178L246.272 193.678L242.728 191.822L237.228 202.322L240.772 204.178ZM246.266 193.688C257.602 172.35 265.869 156.235 271.055 145.361L267.445 143.639C262.298 154.432 254.064 170.484 242.734 191.812L246.266 193.688ZM271.057 145.356C274.067 139.003 278.408 129.486 284.076 116.817L280.424 115.183C274.759 127.847 270.433 137.331 267.443 143.644L271.057 145.356ZM284.078 116.812L293.078 96.5623L289.422 94.9377L280.422 115.188L284.078 116.812ZM293.061 96.5979C296.694 88.8367 300.303 82.4486 303.881 77.4075L300.619 75.0925C296.863 80.3847 293.139 86.9967 289.439 94.9021L293.061 96.5979ZM303.898 77.383C307.387 72.3088 311.723 68.453 316.916 65.7779L315.084 62.222C309.277 65.2137 304.447 69.5245 300.602 75.1169L303.898 77.383ZM316.936 65.7676C319.56 64.3783 321.905 63.75 324 63.75V59.75C321.095 59.75 318.107 60.6217 315.064 62.2324L316.936 65.7676ZM324 63.75C325.339 63.75 326.382 64.0635 327.216 64.6104C328.057 65.1614 328.816 66.0344 329.443 67.3562L333.057 65.6438C332.184 63.7989 330.984 62.2969 329.409 61.2646C327.827 60.2282 325.995 59.75 324 59.75V63.75ZM329.461 67.3944C330.839 70.1504 332.131 74.4393 333.287 80.3817L337.213 79.6182C336.035 73.5607 334.661 68.8496 333.039 65.6056L329.461 67.3944ZM333.28 80.3443C336.293 97.5839 340.475 115.815 345.823 135.036L349.677 133.964C344.359 114.852 340.207 96.7495 337.22 79.6557L333.28 80.3443Z" fill="#FDFBFB"/>
<g filter="url(#filter1_d)">
<path d="M158.296 72L163.096 90L167.296 72H175.096L167.496 100H159.896L155.096 82.6L150.296 100H142.696L135.096 72H142.896L147.096 90L151.896 72H158.296ZM207.315 100H185.115V72H207.315V77.6H192.315V83H204.115V88.6H192.315V94.4H207.315V100ZM218.505 72H234.505C237.119 72 239.039 72.6 240.265 73.8C241.492 74.9733 242.105 76.7733 242.105 79.2C242.105 80.8 241.759 82.1067 241.065 83.12C240.372 84.1067 239.519 84.8 238.505 85.2C240.665 85.7867 242.132 87.2267 242.905 89.52C243.172 90.3467 243.305 91.3067 243.305 92.4C243.305 95.0133 242.692 96.9333 241.465 98.16C240.239 99.3867 238.319 100 235.705 100H218.505V72ZM236.105 91.2C236.105 89.6 235.305 88.8 233.705 88.8H225.705V94.4H233.705C235.305 94.4 236.105 93.6 236.105 92V91.2ZM234.905 80C234.905 78.4 234.105 77.6 232.505 77.6H225.705V83.2H232.505C234.105 83.2 234.905 82.4 234.905 80.8V80ZM179.015 144V150L161.015 142V136.8L179.015 128.8V134.8L167.615 139.4L179.015 144ZM180.605 150L192.605 122H199.405L187.805 150H180.605ZM212.395 139.4L200.995 134.8V128.8L218.995 136.8V142L200.995 150V144L212.395 139.4ZM158.711 172C161.724 172 164.004 172.787 165.551 174.36C167.124 175.907 167.911 178.187 167.911 181.2V190.8C167.911 193.813 167.124 196.107 165.551 197.68C164.004 199.227 161.724 200 158.711 200H143.111V172H158.711ZM160.711 181.2C160.711 178.8 159.511 177.6 157.111 177.6H150.311V194.4H157.111C159.511 194.4 160.711 193.2 160.711 190.8V181.2ZM202.1 200H179.9V172H202.1V177.6H187.1V183H198.9V188.6H187.1V194.4H202.1V200ZM225.091 191.6L231.891 172H239.691L229.091 200H221.091L210.491 172H218.291L225.091 191.6Z" fill="#040404"/>
<path d="M158.296 72L159.745 71.6135L159.449 70.5H158.296V72ZM163.096 90L161.647 90.3865L164.557 90.3408L163.096 90ZM167.296 72V70.5H166.106L165.835 71.6592L167.296 72ZM175.096 72L176.544 72.3929L177.058 70.5H175.096V72ZM167.496 100V101.5H168.643L168.944 100.393L167.496 100ZM159.896 100L158.45 100.399L158.754 101.5H159.896V100ZM155.096 82.6L156.542 82.2011L155.096 76.9594L153.65 82.2011L155.096 82.6ZM150.296 100V101.5H151.438L151.742 100.399L150.296 100ZM142.696 100L141.248 100.393L141.549 101.5H142.696V100ZM135.096 72V70.5H133.135L133.648 72.3929L135.096 72ZM142.896 72L144.357 71.6592L144.086 70.5H142.896V72ZM147.096 90L145.635 90.3408L148.545 90.3865L147.096 90ZM151.896 72V70.5H150.744L150.447 71.6135L151.896 72ZM156.847 72.3865L161.647 90.3865L164.545 89.6135L159.745 71.6135L156.847 72.3865ZM164.557 90.3408L168.757 72.3408L165.835 71.6592L161.635 89.6592L164.557 90.3408ZM167.296 73.5H175.096V70.5H167.296V73.5ZM173.648 71.6071L166.048 99.6071L168.944 100.393L176.544 72.3929L173.648 71.6071ZM167.496 98.5H159.896V101.5H167.496V98.5ZM161.342 99.6011L156.542 82.2011L153.65 82.9989L158.45 100.399L161.342 99.6011ZM153.65 82.2011L148.85 99.6011L151.742 100.399L156.542 82.9989L153.65 82.2011ZM150.296 98.5H142.696V101.5H150.296V98.5ZM144.144 99.6071L136.544 71.6071L133.648 72.3929L141.248 100.393L144.144 99.6071ZM135.096 73.5H142.896V70.5H135.096V73.5ZM141.435 72.3408L145.635 90.3408L148.557 89.6592L144.357 71.6592L141.435 72.3408ZM148.545 90.3865L153.345 72.3865L150.447 71.6135L145.647 89.6135L148.545 90.3865ZM151.896 73.5H158.296V70.5H151.896V73.5ZM207.315 100V101.5H208.815V100H207.315ZM185.115 100H183.615V101.5H185.115V100ZM185.115 72V70.5H183.615V72H185.115ZM207.315 72H208.815V70.5H207.315V72ZM207.315 77.6V79.1H208.815V77.6H207.315ZM192.315 77.6V76.1H190.815V77.6H192.315ZM192.315 83H190.815V84.5H192.315V83ZM204.115 83H205.615V81.5H204.115V83ZM204.115 88.6V90.1H205.615V88.6H204.115ZM192.315 88.6V87.1H190.815V88.6H192.315ZM192.315 94.4H190.815V95.9H192.315V94.4ZM207.315 94.4H208.815V92.9H207.315V94.4ZM207.315 98.5H185.115V101.5H207.315V98.5ZM186.615 100V72H183.615V100H186.615ZM185.115 73.5H207.315V70.5H185.115V73.5ZM205.815 72V77.6H208.815V72H205.815ZM207.315 76.1H192.315V79.1H207.315V76.1ZM190.815 77.6V83H193.815V77.6H190.815ZM192.315 84.5H204.115V81.5H192.315V84.5ZM202.615 83V88.6H205.615V83H202.615ZM204.115 87.1H192.315V90.1H204.115V87.1ZM190.815 88.6V94.4H193.815V88.6H190.815ZM192.315 95.9H207.315V92.9H192.315V95.9ZM205.815 94.4V100H208.815V94.4H205.815ZM218.505 72V70.5H217.005V72H218.505ZM240.265 73.8L239.217 74.8722L239.223 74.8781L239.229 74.884L240.265 73.8ZM241.065 83.12L242.293 83.9824L242.298 83.9748L242.303 83.967L241.065 83.12ZM238.505 85.2L237.955 83.8048L233.753 85.4635L238.112 86.6476L238.505 85.2ZM242.905 89.52L244.333 89.0595L244.33 89.0501L244.327 89.0407L242.905 89.52ZM241.465 98.16L240.405 97.0993L241.465 98.16ZM218.505 100H217.005V101.5H218.505V100ZM225.705 88.8V87.3H224.205V88.8H225.705ZM225.705 94.4H224.205V95.9H225.705V94.4ZM225.705 77.6V76.1H224.205V77.6H225.705ZM225.705 83.2H224.205V84.7H225.705V83.2ZM218.505 73.5H234.505V70.5H218.505V73.5ZM234.505 73.5C236.927 73.5 238.387 74.0605 239.217 74.8722L241.314 72.7277C239.691 71.1395 237.31 70.5 234.505 70.5V73.5ZM239.229 74.884C240.052 75.6711 240.605 77.0044 240.605 79.2H243.605C243.605 76.5423 242.933 74.2756 241.302 72.716L239.229 74.884ZM240.605 79.2C240.605 80.5885 240.305 81.5748 239.828 82.273L242.303 83.967C243.212 82.6385 243.605 81.0115 243.605 79.2H240.605ZM239.838 82.2576C239.295 83.031 238.667 83.5238 237.955 83.8048L239.056 86.5952C240.371 86.0762 241.45 85.1824 242.293 83.9824L239.838 82.2576ZM238.112 86.6476C239.745 87.091 240.855 88.1343 241.484 89.9993L244.327 89.0407C243.409 86.319 241.586 84.4824 238.899 83.7524L238.112 86.6476ZM241.478 89.9805C241.686 90.6257 241.805 91.4244 241.805 92.4H244.805C244.805 91.1889 244.658 90.0677 244.333 89.0595L241.478 89.9805ZM241.805 92.4C241.805 94.8143 241.235 96.2688 240.405 97.0993L242.526 99.2207C244.149 97.5979 244.805 95.2124 244.805 92.4H241.805ZM240.405 97.0993C239.574 97.9299 238.12 98.5 235.705 98.5V101.5C238.518 101.5 240.903 100.843 242.526 99.2207L240.405 97.0993ZM235.705 98.5H218.505V101.5H235.705V98.5ZM220.005 100V72H217.005V100H220.005ZM237.605 91.2C237.605 90.1688 237.347 89.1199 236.566 88.3393C235.786 87.5588 234.737 87.3 233.705 87.3V90.3C234.274 90.3 234.425 90.4412 234.445 90.4607C234.464 90.4801 234.605 90.6312 234.605 91.2H237.605ZM233.705 87.3H225.705V90.3H233.705V87.3ZM224.205 88.8V94.4H227.205V88.8H224.205ZM225.705 95.9H233.705V92.9H225.705V95.9ZM233.705 95.9C234.737 95.9 235.786 95.6412 236.566 94.8607C237.347 94.0801 237.605 93.0312 237.605 92H234.605C234.605 92.5688 234.464 92.7199 234.445 92.7393C234.425 92.7588 234.274 92.9 233.705 92.9V95.9ZM237.605 92V91.2H234.605V92H237.605ZM236.405 80C236.405 78.9688 236.147 77.9199 235.366 77.1393C234.586 76.3588 233.537 76.1 232.505 76.1V79.1C233.074 79.1 233.225 79.2412 233.245 79.2607C233.264 79.2801 233.405 79.4312 233.405 80H236.405ZM232.505 76.1H225.705V79.1H232.505V76.1ZM224.205 77.6V83.2H227.205V77.6H224.205ZM225.705 84.7H232.505V81.7H225.705V84.7ZM232.505 84.7C233.537 84.7 234.586 84.4412 235.366 83.6607C236.147 82.8801 236.405 81.8312 236.405 80.8H233.405C233.405 81.3688 233.264 81.5199 233.245 81.5393C233.225 81.5588 233.074 81.7 232.505 81.7V84.7ZM236.405 80.8V80H233.405V80.8H236.405ZM179.015 144H180.515V142.988L179.576 142.609L179.015 144ZM179.015 150L178.406 151.371L180.515 152.308V150H179.015ZM161.015 142H159.515V142.975L160.406 143.371L161.015 142ZM161.015 136.8L160.406 135.429L159.515 135.825V136.8H161.015ZM179.015 128.8H180.515V126.492L178.406 127.429L179.015 128.8ZM179.015 134.8L179.576 136.191L180.515 135.812V134.8H179.015ZM167.615 139.4L167.054 138.009L163.606 139.4L167.054 140.791L167.615 139.4ZM177.515 144V150H180.515V144H177.515ZM179.624 148.629L161.624 140.629L160.406 143.371L178.406 151.371L179.624 148.629ZM162.515 142V136.8H159.515V142H162.515ZM161.624 138.171L179.624 130.171L178.406 127.429L160.406 135.429L161.624 138.171ZM177.515 128.8V134.8H180.515V128.8H177.515ZM178.454 133.409L167.054 138.009L168.176 140.791L179.576 136.191L178.454 133.409ZM167.054 140.791L178.454 145.391L179.576 142.609L168.176 138.009L167.054 140.791ZM180.605 150L179.227 149.409L178.331 151.5H180.605V150ZM192.605 122V120.5H191.616L191.227 121.409L192.605 122ZM199.405 122L200.791 122.574L201.651 120.5H199.405V122ZM187.805 150V151.5H188.808L189.191 150.574L187.805 150ZM181.984 150.591L193.984 122.591L191.227 121.409L179.227 149.409L181.984 150.591ZM192.605 123.5H199.405V120.5H192.605V123.5ZM198.02 121.426L186.42 149.426L189.191 150.574L200.791 122.574L198.02 121.426ZM187.805 148.5H180.605V151.5H187.805V148.5ZM212.395 139.4L212.956 140.791L216.403 139.4L212.956 138.009L212.395 139.4ZM200.995 134.8H199.495V135.812L200.433 136.191L200.995 134.8ZM200.995 128.8L201.604 127.429L199.495 126.492V128.8H200.995ZM218.995 136.8H220.495V135.825L219.604 135.429L218.995 136.8ZM218.995 142L219.604 143.371L220.495 142.975V142H218.995ZM200.995 150H199.495V152.308L201.604 151.371L200.995 150ZM200.995 144L200.433 142.609L199.495 142.988V144H200.995ZM212.956 138.009L201.556 133.409L200.433 136.191L211.833 140.791L212.956 138.009ZM202.495 134.8V128.8H199.495V134.8H202.495ZM200.385 130.171L218.385 138.171L219.604 135.429L201.604 127.429L200.385 130.171ZM217.495 136.8V142H220.495V136.8H217.495ZM218.385 140.629L200.385 148.629L201.604 151.371L219.604 143.371L218.385 140.629ZM202.495 150V144H199.495V150H202.495ZM201.556 145.391L212.956 140.791L211.833 138.009L200.433 142.609L201.556 145.391ZM165.551 174.36L164.481 175.412L164.49 175.421L164.499 175.43L165.551 174.36ZM165.551 197.68L166.612 198.741H166.612L165.551 197.68ZM143.111 200H141.611V201.5H143.111V200ZM143.111 172V170.5H141.611V172H143.111ZM150.311 177.6V176.1H148.811V177.6H150.311ZM150.311 194.4H148.811V195.9H150.311V194.4ZM158.711 173.5C161.473 173.5 163.307 174.217 164.481 175.412L166.621 173.308C164.701 171.356 161.975 170.5 158.711 170.5V173.5ZM164.499 175.43C165.694 176.604 166.411 178.438 166.411 181.2H169.411C169.411 177.936 168.555 175.21 166.602 173.29L164.499 175.43ZM166.411 181.2V190.8H169.411V181.2H166.411ZM166.411 190.8C166.411 193.56 165.694 195.415 164.49 196.619L166.612 198.741C168.554 196.798 169.411 194.066 169.411 190.8H166.411ZM164.49 196.619C163.317 197.792 161.48 198.5 158.711 198.5V201.5C161.969 201.5 164.691 200.661 166.612 198.741L164.49 196.619ZM158.711 198.5H143.111V201.5H158.711V198.5ZM144.611 200V172H141.611V200H144.611ZM143.111 173.5H158.711V170.5H143.111V173.5ZM162.211 181.2C162.211 179.769 161.852 178.42 160.872 177.439C159.891 176.459 158.542 176.1 157.111 176.1V179.1C158.08 179.1 158.531 179.341 158.75 179.561C158.97 179.78 159.211 180.231 159.211 181.2H162.211ZM157.111 176.1H150.311V179.1H157.111V176.1ZM148.811 177.6V194.4H151.811V177.6H148.811ZM150.311 195.9H157.111V192.9H150.311V195.9ZM157.111 195.9C158.542 195.9 159.891 195.541 160.872 194.561C161.852 193.58 162.211 192.231 162.211 190.8H159.211C159.211 191.769 158.97 192.22 158.75 192.439C158.531 192.659 158.08 192.9 157.111 192.9V195.9ZM162.211 190.8V181.2H159.211V190.8H162.211ZM202.1 200V201.5H203.6V200H202.1ZM179.9 200H178.4V201.5H179.9V200ZM179.9 172V170.5H178.4V172H179.9ZM202.1 172H203.6V170.5H202.1V172ZM202.1 177.6V179.1H203.6V177.6H202.1ZM187.1 177.6V176.1H185.6V177.6H187.1ZM187.1 183H185.6V184.5H187.1V183ZM198.9 183H200.4V181.5H198.9V183ZM198.9 188.6V190.1H200.4V188.6H198.9ZM187.1 188.6V187.1H185.6V188.6H187.1ZM187.1 194.4H185.6V195.9H187.1V194.4ZM202.1 194.4H203.6V192.9H202.1V194.4ZM202.1 198.5H179.9V201.5H202.1V198.5ZM181.4 200V172H178.4V200H181.4ZM179.9 173.5H202.1V170.5H179.9V173.5ZM200.6 172V177.6H203.6V172H200.6ZM202.1 176.1H187.1V179.1H202.1V176.1ZM185.6 177.6V183H188.6V177.6H185.6ZM187.1 184.5H198.9V181.5H187.1V184.5ZM197.4 183V188.6H200.4V183H197.4ZM198.9 187.1H187.1V190.1H198.9V187.1ZM185.6 188.6V194.4H188.6V188.6H185.6ZM187.1 195.9H202.1V192.9H187.1V195.9ZM200.6 194.4V200H203.6V194.4H200.6ZM225.091 191.6L223.673 192.092L225.091 196.176L226.508 192.092L225.091 191.6ZM231.891 172V170.5H230.823L230.473 171.508L231.891 172ZM239.691 172L241.093 172.531L241.862 170.5H239.691V172ZM229.091 200V201.5H230.127L230.493 200.531L229.091 200ZM221.091 200L219.688 200.531L220.055 201.5H221.091V200ZM210.491 172V170.5H208.319L209.088 172.531L210.491 172ZM218.291 172L219.708 171.508L219.358 170.5H218.291V172ZM226.508 192.092L233.308 172.492L230.473 171.508L223.673 191.108L226.508 192.092ZM231.891 173.5H239.691V170.5H231.891V173.5ZM238.288 171.469L227.688 199.469L230.493 200.531L241.093 172.531L238.288 171.469ZM229.091 198.5H221.091V201.5H229.091V198.5ZM222.493 199.469L211.893 171.469L209.088 172.531L219.688 200.531L222.493 199.469ZM210.491 173.5H218.291V170.5H210.491V173.5ZM216.873 172.492L223.673 192.092L226.508 191.108L219.708 171.508L216.873 172.492Z" fill="#FDFBFB"/>
</g>
<line x1="384" x2="384" y2="122" stroke="#FDFBFB" stroke-width="2"/>
<line x1="399" y1="16" x2="399" y2="162" stroke="#FDFBFB" stroke-width="2"/>
<line x1="417" y1="30" x2="190" y2="30" stroke="#FDFBFB" stroke-width="2"/>
<line x1="158" y1="11" x2="408" y2="11" stroke="#FDFBFB" stroke-width="2"/>
<line x1="11" y1="18" x2="11" y2="79" stroke="#FDFBFB" stroke-width="2"/>
<line x1="26" y1="6" x2="26" y2="61" stroke="#FDFBFB" stroke-width="2"/>
<line x1="10" y1="11" x2="77" y2="11" stroke="#FDFBFB" stroke-width="2"/>
<line y1="28" x2="58" y2="28" stroke="#FDFBFB" stroke-width="2"/>
<line x1="11" y1="225" x2="11" y2="284" stroke="#FDFBFB" stroke-width="2"/>
<path d="M25 235L25 291" stroke="#FDFBFB" stroke-width="2"/>
<path d="M17 277H190" stroke="#FDFBFB" stroke-width="2"/>
<line x1="1" y1="262" x2="153" y2="262" stroke="#FDFBFB" stroke-width="2"/>
<line x1="240" y1="276" x2="391" y2="276" stroke="#FDFBFB" stroke-width="2"/>
<line x1="278" y1="262" x2="408" y2="262" stroke="#FDFBFB" stroke-width="2"/>
<line x1="399" y1="191" x2="399" y2="300" stroke="#FDFBFB" stroke-width="2"/>
<line x1="381" y1="255" x2="381" y2="290" stroke="#FDFBFB" stroke-width="2"/>
<defs>
<filter id="filter0_d" x="8.25" y="0.25" width="134" height="231" filterUnits="userSpaceOnUse" color-interpolation-filters="sRGB">
<feFlood flood-opacity="0" result="BackgroundImageFix"/>
<feColorMatrix in="SourceAlpha" type="matrix" values="0 0 0 0 0 0 0 0 0 0 0 0 0 0 0 0 0 0 127 0"/>
<feOffset dy="4"/>
<feGaussianBlur stdDeviation="2"/>
<feColorMatrix type="matrix" values="0 0 0 0 0 0 0 0 0 0 0 0 0 0 0 0 0 0 0.25 0"/>
<feBlend mode="normal" in2="BackgroundImageFix" result="effect1_dropShadow"/>
<feBlend mode="normal" in="SourceGraphic" in2="effect1_dropShadow" result="shape"/>
</filter>
<filter id="filter1_d" x="129.133" y="70.5" width="119.671" height="139" filterUnits="userSpaceOnUse" color-interpolation-filters="sRGB">
<feFlood flood-opacity="0" result="BackgroundImageFix"/>
<feColorMatrix in="SourceAlpha" type="matrix" values="0 0 0 0 0 0 0 0 0 0 0 0 0 0 0 0 0 0 127 0"/>
<feOffset dy="4"/>
<feGaussianBlur stdDeviation="2"/>
<feColorMatrix type="matrix" values="0 0 0 0 0 0 0 0 0 0 0 0 0 0 0 0 0 0 0.25 0"/>
<feBlend mode="normal" in2="BackgroundImageFix" result="effect1_dropShadow"/>
<feBlend mode="normal" in="SourceGraphic" in2="effect1_dropShadow" result="shape"/>
</filter>
</defs>
</svg>
