<svg width="3957" height="3230" viewBox="0 0 3957 3230" fill="none" xmlns="http://www.w3.org/2000/svg">
<path d="M3159.09 1745.2H3145.22V1332.78H2510.14V507.928H1926.66V888.724H838.082V875.259H1912.79V494.463H2524.01V1319.31H3159.09V1745.2Z" fill="#5EAED5"/>
<path d="M902.263 2534.98H888.394V1239.46H496.184V667.64H1621.53V304.693H1784.41V318.159H1635.4V681.105H510.053V1225.99H902.263V2534.98Z" fill="#5EAED5"/>
<path d="M2823.64 2312.64H2810.1V2167.96H2435.95V1075.37H1874.73V1449.59H1860.86V1061.9H2449.82V2154.5H2823.64V2312.64Z" fill="#5EAED5"/>
<path d="M1798.93 2264.1H1303.19V1513.16H2704.95V1033.4H2905.89V1046.87H2718.82V1526.31H1317.06V2250.95H1798.93V2264.1Z" fill="#5EAED5"/>
<path d="M1512.84 678.6H1050.96V335.695H1512.84V678.6ZM1067.41 662.315H1495.75V351.666H1067.41V662.315Z" fill="#58595B"/>
<path d="M1215.13 496.032H1081.92V409.602H1215.13V496.032ZM1098.37 480.061H1198.36V425.886H1098.37V480.061Z" fill="#58595B"/>
<path d="M1348.35 496.032H1215.14V409.602H1348.35V496.032ZM1231.91 480.061H1331.9V425.886H1231.91V480.061Z" fill="#58595B"/>
<path d="M1481.87 496.032H1348.66V409.602H1481.87V496.032ZM1365.11 480.061H1465.1V425.886H1365.11V480.061Z" fill="#58595B"/>
<path d="M1215.13 619.728H1081.92V533.297H1215.13V619.728ZM1098.37 603.443H1198.36V549.268H1098.37V603.443Z" fill="#58595B"/>
<path d="M1348.35 619.728H1215.14V533.297H1348.35V619.728ZM1231.91 603.443H1331.9V549.268H1231.91V603.443Z" fill="#58595B"/>
<path d="M1481.87 619.728H1348.66V533.297H1481.87V619.728ZM1365.11 603.443H1465.1V549.268H1365.11V603.443Z" fill="#58595B"/>
<path d="M1089.98 497.91H1206.74V504.487H1089.98V497.91Z" fill="#58595B"/>
<path d="M1089.98 515.446H1206.74V522.022H1089.98V515.446Z" fill="#58595B"/>
<path d="M1223.52 497.91H1340.28V504.487H1223.52V497.91Z" fill="#58595B"/>
<path d="M1223.52 515.446H1340.28V522.022H1223.52V515.446Z" fill="#58595B"/>
<path d="M1356.73 497.91H1473.49V504.487H1356.73V497.91Z" fill="#58595B"/>
<path d="M1356.73 515.446H1473.49V522.022H1356.73V515.446Z" fill="#58595B"/>
<path d="M1223.52 376.094H1340.28V382.67H1223.52V376.094Z" fill="#58595B"/>
<path d="M1255.46 393.943H1308.03V400.52H1255.46V393.943Z" fill="#58595B"/>
<path d="M1089.98 623.798H1206.74V630.374H1089.98V623.798Z" fill="#58595B"/>
<path d="M1089.98 641.647H1206.74V648.224H1089.98V641.647Z" fill="#58595B"/>
<path d="M1223.52 623.798H1340.28V630.374H1223.52V623.798Z" fill="#58595B"/>
<path d="M1223.52 641.647H1340.28V648.224H1223.52V641.647Z" fill="#58595B"/>
<path d="M1356.73 623.798H1473.49V630.374H1356.73V623.798Z" fill="#58595B"/>
<path d="M1356.73 641.647H1473.49V648.224H1356.73V641.647Z" fill="#58595B"/>
<path d="M3405.18 1267.96H2908.47V901.879H3405.18V1267.96ZM2926.85 1250.42H3387.44V919.729H2926.85V1250.42Z" fill="#58595B"/>
<path d="M3330.68 1136.43H2983.3V932.88H3330.68V1136.43ZM3001.36 1118.89H3312.62V950.416H3001.36V1118.89V1118.89Z" fill="#58595B"/>
<path d="M2979.75 1097.91L2923.3 1034.66L2979.75 971.4V1097.91ZM2940.4 1034.66L2967.17 1064.72V1004.59L2940.4 1034.66Z" fill="#58595B"/>
<path d="M3334.23 1097.91V971.4L3390.67 1034.66L3334.23 1097.91ZM3346.81 1004.59V1064.72L3373.58 1034.66L3346.81 1004.59Z" fill="#58595B"/>
<path d="M3047.48 1237.89H2948.79V1142.07H3047.48V1237.89ZM2961.69 1225.37H3034.58V1154.59H2961.69V1225.37Z" fill="#58595B"/>
<path d="M3153.28 1237.89H3054.58V1142.07H3153.28V1237.89ZM3067.48 1225.37H3140.37V1154.59H3067.48V1225.37Z" fill="#58595B"/>
<path d="M3259.07 1237.89H3160.37V1142.07H3259.07V1237.89ZM3173.27 1225.37H3246.17V1154.59H3173.27V1225.37Z" fill="#58595B"/>
<path d="M3365.19 1237.89H3266.49V1142.07H3365.19V1237.89ZM3279.39 1225.37H3352.28V1154.59H3279.39V1225.37Z" fill="#58595B"/>
<path d="M2245.33 433.399H1785.07V93H2245.33V433.399ZM1798.94 419.933H2231.46V106.466H1798.94V419.933Z" fill="#58595B"/>
<path d="M1912.79 223.272H1817.32V120.558H1912.79V223.272ZM1831.19 209.807H1898.92V133.71H1831.19V209.807Z" fill="#58595B"/>
<path d="M1928.27 127.135H2041.48V142.792H1928.27V127.135Z" fill="#58595B"/>
<path d="M1928.27 156.258H2074.38V164.087H1928.27V156.258Z" fill="#58595B"/>
<path d="M1928.27 194.774H2199.53V202.603H1928.27V194.774Z" fill="#58595B"/>
<path d="M1928.27 212.624H2199.53V220.453H1928.27V212.624Z" fill="#58595B"/>
<path d="M1928.27 230.788H2199.53V238.617H1928.27V230.788Z" fill="#58595B"/>
<path d="M1928.27 248.638H2199.53V256.467H1928.27V248.638Z" fill="#58595B"/>
<path d="M1928.27 266.802H2199.53V274.631H1928.27V266.802Z" fill="#58595B"/>
<path d="M1928.27 284.965H2199.53V292.794H1928.27V284.965Z" fill="#58595B"/>
<path d="M1928.27 302.814H2115.99V310.643H1928.27V302.814Z" fill="#58595B"/>
<path d="M1928.27 346.344H2199.53V354.173H1928.27V346.344Z" fill="#58595B"/>
<path d="M1928.27 363.253H2199.53V371.082H1928.27V363.253Z" fill="#58595B"/>
<path d="M1928.27 380.162H2199.53V387.991H1928.27V380.162Z" fill="#58595B"/>
<path d="M1928.27 396.76H2056.96V404.589H1928.27V396.76Z" fill="#58595B"/>
<path d="M2938.47 690.813H2511.75V375.467H2938.47V690.813V690.813ZM2524.65 678.6H2925.57V387.993H2524.65V678.6Z" fill="#58595B"/>
<path d="M2518.2 454.382H2932.02V458.453H2518.2V454.382Z" fill="#58595B"/>
<path d="M2518.2 552.398H2932.02V556.469H2518.2V552.398Z" fill="#58595B"/>
<path d="M2680.11 584.341H2770.1V593.736H2680.11V584.341Z" fill="#58595B"/>
<path d="M2680.11 613.463H2770.1V616.281H2680.11V613.463Z" fill="#58595B"/>
<path d="M2680.11 632.878H2770.1V642.272H2680.11V632.878Z" fill="#58595B"/>
<path d="M2554 584.341H2643.99V593.736H2554V584.341Z" fill="#58595B"/>
<path d="M2554 613.463H2643.99V616.281H2554V613.463Z" fill="#58595B"/>
<path d="M2554 632.878H2643.99V642.272H2554V632.878Z" fill="#58595B"/>
<path d="M2805.59 584.341H2895.57V593.736H2805.59V584.341Z" fill="#58595B"/>
<path d="M2805.59 613.463H2895.57V616.281H2805.59V613.463Z" fill="#58595B"/>
<path d="M2805.59 632.878H2895.57V642.272H2805.59V632.878Z" fill="#58595B"/>
<path d="M2080.51 821.711H2059.55C2052.13 821.711 2046 815.761 2046 808.558V804.8L2044.06 807.932C2040.52 814.195 2031.81 816.387 2025.36 812.942L2007.29 802.921C2004.07 801.042 2001.81 798.224 2000.84 794.779C1999.88 791.335 2000.2 787.89 2002.13 784.758L2004.71 780.687L2000.52 783.192C1994.07 786.637 1985.36 784.445 1981.81 778.182L1971.17 760.645C1969.23 757.514 1968.91 754.069 1969.88 750.624C1970.85 747.18 1973.11 744.361 1976.33 742.482L1980.52 740.29H1975.69C1968.27 740.29 1961.82 734.34 1961.82 726.825V706.47C1961.82 699.267 1967.94 693.004 1975.69 693.004H1979.56L1976.33 691.125C1969.88 687.367 1967.62 679.225 1971.17 672.962L1981.49 655.425C1985.04 649.162 1993.75 646.97 2000.2 650.415L2004.39 652.92L2001.81 648.849C1997.94 642.586 2000.2 634.444 2006.65 630.686L2024.71 620.352C2031.16 616.907 2039.87 619.099 2043.42 625.049L2045.68 629.12V624.423C2045.68 617.22 2051.81 611.271 2059.22 611.271H2080.19C2087.61 611.271 2093.74 617.22 2093.74 624.423V628.181L2095.67 625.049C2099.22 618.786 2107.93 616.594 2114.38 620.039L2132.44 630.06C2135.67 631.939 2137.92 634.757 2138.89 638.202C2139.86 641.647 2139.54 645.091 2137.6 648.223L2135.02 652.294L2139.21 649.789C2145.67 646.344 2154.37 648.536 2157.92 654.486L2168.57 672.023C2172.44 678.286 2170.18 686.428 2163.73 690.186L2159.53 692.378H2164.37C2171.79 692.378 2177.92 698.328 2177.92 705.843V726.198C2177.92 733.401 2171.79 739.664 2164.37 739.664H2160.5L2163.73 741.543C2170.18 745.301 2172.44 753.443 2168.89 759.706L2158.57 777.243C2155.02 783.506 2146.31 785.698 2139.86 782.253L2135.67 779.748L2138.25 783.819C2142.12 790.082 2139.86 798.224 2133.09 801.982L2115.02 812.316C2108.57 815.761 2099.86 813.569 2096.32 807.305L2094.06 803.234V807.932C2094.38 815.761 2088.25 821.711 2080.51 821.711ZM2041.81 790.708L2046 791.961C2047.94 792.587 2050.19 793.213 2052.45 793.527L2056.64 794.466V808.558C2056.64 810.124 2057.93 811.69 2059.87 811.69H2080.83C2082.45 811.69 2084.06 810.437 2084.06 808.558V794.466L2088.25 793.527C2090.51 793.213 2092.77 792.587 2095.03 791.961L2099.22 790.708L2106.32 802.608C2107.28 803.861 2109.22 804.487 2110.51 803.861L2128.57 793.527C2130.18 792.587 2130.51 790.708 2129.54 789.456L2122.44 777.243L2125.67 774.424C2127.28 772.858 2128.89 771.293 2130.51 769.414L2133.41 766.282L2145.99 773.172C2147.28 773.798 2149.54 773.485 2150.18 771.919L2160.5 754.382C2161.47 752.817 2160.82 750.938 2159.21 750.311L2146.63 743.422L2147.92 739.351C2148.57 737.472 2149.21 735.28 2149.54 733.088L2150.5 729.017H2165.02C2166.63 729.017 2168.24 727.764 2168.24 725.885V705.53C2168.24 703.964 2166.95 702.399 2165.02 702.399H2150.5L2149.54 698.328C2148.89 696.135 2148.57 693.943 2147.6 691.751L2146.31 687.68L2158.89 680.791C2160.5 679.851 2160.82 677.972 2160.18 676.72L2149.54 659.183C2148.57 657.931 2146.63 657.304 2145.34 657.931L2132.76 664.82L2129.86 661.688C2128.25 660.123 2126.64 658.557 2125.02 656.991L2121.8 654.173L2128.89 641.96C2129.22 641.333 2129.54 640.394 2129.22 639.768C2128.89 639.141 2128.57 638.202 2127.93 637.889L2109.86 627.868C2108.25 626.928 2106.32 627.555 2105.67 629.12L2098.57 641.333L2094.38 640.081C2092.45 639.454 2090.19 638.828 2087.93 638.515L2083.74 637.575V623.484C2083.74 621.918 2082.45 620.352 2080.51 620.352H2059.55C2057.93 620.352 2056.32 621.605 2056.32 623.484V637.575L2052.13 638.515C2049.87 639.141 2047.61 639.454 2045.35 640.081L2041.16 641.333L2034.07 629.433C2033.1 628.181 2031.16 627.555 2029.87 628.181L2011.81 638.515C2010.2 639.454 2009.88 641.333 2010.52 642.586L2017.62 654.799L2014.39 657.617C2012.78 659.183 2011.17 660.749 2009.55 662.315L2006.65 665.446L1994.07 658.557C1992.46 657.617 1990.52 658.244 1989.88 659.81L1979.56 677.346C1978.59 678.912 1979.23 680.791 1980.85 681.417L1993.43 688.307L1992.14 692.691C1991.49 694.57 1990.85 696.762 1990.52 698.954L1989.56 703.025H1975.04C1973.43 703.025 1971.82 704.277 1971.82 706.156V726.511C1971.82 728.077 1973.11 729.643 1975.04 729.643H1989.56L1990.52 733.714C1991.17 735.906 1991.49 738.098 1992.14 740.29L1993.43 744.361L1980.85 751.251C1980.2 751.564 1979.56 752.19 1979.23 753.13C1978.91 754.069 1979.23 754.695 1979.56 755.322L1990.2 772.858C1991.17 774.111 1993.1 774.737 1994.39 774.111L2006.97 767.222L2009.88 770.353C2011.49 771.919 2013.1 773.485 2015.04 775.05L2018.26 777.869L2011.17 790.082C2010.84 790.708 2010.52 791.648 2010.84 792.274C2011.17 792.9 2011.49 793.84 2012.46 794.153L2030.52 804.174C2031.81 805.113 2034.07 804.487 2034.71 802.921L2041.81 790.708ZM2070.19 777.869C2035.36 777.869 2006.65 750.311 2006.65 716.177C2006.65 682.043 2035.03 654.486 2070.19 654.486C2105.03 654.486 2133.73 682.043 2133.73 716.177C2133.73 750.311 2105.03 777.869 2070.19 777.869ZM2070.19 664.82C2041.16 664.82 2017.29 687.68 2017.29 716.177C2017.29 744.361 2040.84 767.535 2070.19 767.535C2099.22 767.535 2123.09 744.674 2123.09 716.177C2122.76 687.993 2099.22 664.82 2070.19 664.82Z" fill="#4EA7C3"/>
<path d="M2993.63 1606.16H2982.01C2978.14 1606.16 2975.24 1603.34 2975.24 1599.59V1595.83C2974.92 1595.83 2974.92 1595.83 2974.6 1595.83L2972.66 1599.27C2970.73 1602.41 2966.53 1603.34 2963.31 1601.78L2953.31 1596.14C2950.08 1594.26 2949.12 1590.51 2950.73 1587.37L2952.66 1583.93C2952.34 1583.62 2952.34 1583.62 2952.02 1583.3L2948.47 1585.18C2945.24 1587.06 2941.05 1585.81 2939.12 1582.68L2933.31 1572.97C2932.34 1571.4 2932.02 1569.52 2932.67 1567.96C2933.31 1566.39 2934.28 1564.83 2935.89 1563.89L2939.44 1562.01C2939.44 1561.7 2939.44 1561.38 2939.12 1561.07H2935.25C2931.38 1561.07 2928.47 1558.25 2928.47 1554.49V1543.22C2928.47 1539.46 2931.38 1536.64 2935.25 1536.64H2939.12C2939.12 1536.33 2939.12 1536.33 2939.12 1536.02L2935.57 1534.14C2932.34 1532.26 2931.05 1528.19 2932.99 1525.06L2938.79 1515.35C2940.73 1512.22 2944.92 1511.28 2948.15 1512.84L2951.7 1514.72C2952.02 1514.41 2952.02 1514.41 2952.34 1514.1L2950.41 1510.65C2948.47 1507.52 2949.76 1503.45 2952.99 1501.57L2962.98 1495.93C2966.21 1494.05 2970.4 1495.31 2972.34 1498.44L2974.27 1501.88C2974.6 1501.88 2974.92 1501.57 2975.24 1501.57V1497.81C2975.24 1494.05 2978.14 1491.24 2982.01 1491.24H2993.63C2997.17 1491.24 3000.4 1494.05 3000.4 1497.81V1501.57C3000.72 1501.57 3000.72 1501.57 3001.04 1501.57L3002.98 1498.12C3004.92 1494.99 3009.11 1494.05 3012.33 1495.62L3022.33 1501.26C3025.56 1503.14 3026.53 1507.21 3024.91 1510.34L3022.98 1513.78C3023.3 1514.1 3023.3 1514.1 3023.62 1514.41L3027.17 1512.53C3030.4 1510.65 3034.59 1511.9 3036.52 1515.04L3042.33 1524.74C3044.27 1527.87 3042.98 1531.95 3039.75 1533.82L3036.2 1535.7C3036.2 1536.02 3036.52 1536.33 3036.52 1536.64H3040.4C3044.27 1536.64 3047.17 1539.46 3047.17 1543.22V1554.49C3047.17 1558.25 3044.27 1561.07 3040.4 1561.07H3036.52C3036.52 1561.38 3036.52 1561.38 3036.2 1561.7L3039.75 1563.57C3042.98 1565.45 3044.27 1569.52 3042.33 1572.66L3036.52 1582.36C3034.59 1585.49 3030.4 1586.43 3027.17 1584.87L3023.62 1582.99C3023.3 1583.3 3023.3 1583.3 3022.98 1583.62L3024.91 1587.06C3025.88 1588.63 3026.2 1590.51 3025.56 1592.07C3025.24 1593.64 3023.95 1595.2 3022.33 1596.14L3012.33 1601.78C3009.11 1603.66 3004.92 1602.41 3002.98 1599.27L3001.04 1595.83C3000.72 1595.83 3000.4 1596.14 3000.08 1596.14V1599.9C3000.08 1603.03 2997.17 1606.16 2993.63 1606.16ZM2972.66 1590.82L2974.27 1591.44C2975.56 1591.76 2976.53 1592.07 2977.82 1592.38L2979.43 1592.7V1599.9C2979.43 1601.15 2980.72 1602.41 2982.01 1602.41H2993.63C2994.92 1602.41 2996.21 1601.15 2996.21 1599.9V1592.7L2997.82 1592.38C2999.11 1592.07 3000.4 1591.76 3001.69 1591.44L3003.3 1590.82L3006.85 1597.08C3007.5 1598.33 3009.11 1598.65 3010.4 1598.02L3020.4 1592.38C3021.04 1592.07 3021.36 1591.44 3021.69 1590.82C3022.01 1590.19 3021.69 1589.57 3021.37 1588.94L3017.82 1582.68L3019.11 1581.42C3020.08 1580.48 3021.04 1579.55 3022.01 1578.61L3023.3 1577.35L3029.75 1580.8C3031.04 1581.42 3032.65 1581.11 3033.3 1579.86L3039.1 1570.15C3039.75 1568.9 3039.43 1567.33 3038.14 1566.71L3031.69 1563.26L3032.33 1561.7C3032.65 1560.44 3032.98 1559.5 3033.3 1558.25L3033.62 1556.68H3041.04C3042.33 1556.68 3043.62 1555.43 3043.62 1554.18V1542.91C3043.62 1541.65 3042.33 1540.4 3041.04 1540.4H3033.62L3033.3 1538.83C3032.98 1537.58 3032.65 1536.33 3032.33 1535.08L3031.69 1533.51L3038.14 1530.07C3039.43 1529.44 3039.75 1527.87 3039.1 1526.62L3033.3 1516.91C3032.65 1515.66 3031.04 1515.35 3029.75 1515.97L3023.3 1519.42L3022.01 1518.17C3021.04 1517.23 3020.08 1516.29 3019.11 1515.35L3017.82 1514.1L3021.37 1507.83C3022.01 1506.58 3021.69 1505.01 3020.4 1504.39L3010.4 1498.75C3009.11 1498.12 3007.5 1498.44 3006.85 1499.69L3003.3 1505.95L3001.69 1505.64C3000.4 1505.33 2999.43 1505.01 2998.14 1504.7L2996.53 1504.39V1497.19C2996.53 1495.93 2995.24 1494.68 2993.95 1494.68H2982.34C2981.05 1494.68 2979.76 1495.93 2979.76 1497.19V1504.39L2978.14 1504.7C2976.85 1505.01 2975.56 1505.33 2974.27 1505.64L2972.66 1506.27L2969.11 1500C2968.47 1498.75 2966.86 1498.44 2965.57 1499.06L2955.57 1504.7C2954.28 1505.33 2953.95 1506.89 2954.6 1508.15L2958.15 1514.41L2956.86 1515.66C2955.89 1516.6 2954.92 1517.54 2953.95 1518.48L2952.66 1519.73L2946.21 1516.29C2944.92 1515.66 2943.31 1515.97 2942.66 1517.23L2936.86 1526.94C2936.21 1528.19 2936.54 1529.75 2937.83 1530.38L2944.28 1533.82L2943.63 1535.39C2943.31 1536.64 2942.99 1537.58 2942.66 1538.83L2942.34 1540.4H2934.92C2933.63 1540.4 2932.34 1541.65 2932.34 1542.91V1554.18C2932.34 1555.43 2933.63 1556.68 2934.92 1556.68H2942.34L2942.66 1558.25C2942.99 1559.5 2943.31 1560.76 2943.63 1562.01L2944.28 1563.57L2937.83 1567.02C2937.18 1567.33 2936.86 1567.96 2936.54 1568.58C2936.21 1569.21 2936.54 1569.84 2936.86 1570.46L2942.66 1580.17C2943.31 1581.42 2944.92 1581.74 2946.21 1581.11L2952.66 1577.67L2953.95 1578.92C2954.92 1579.86 2955.89 1580.8 2956.86 1581.74L2958.15 1582.99L2954.6 1589.25C2953.95 1590.51 2954.28 1592.07 2955.57 1592.7L2965.57 1598.33C2966.86 1598.96 2968.47 1598.65 2969.11 1597.4L2972.66 1590.82ZM2987.82 1582.05C2969.11 1582.05 2953.63 1567.33 2953.63 1548.86C2953.63 1530.69 2968.79 1515.66 2987.82 1515.66C3006.53 1515.66 3022.01 1530.38 3022.01 1548.86C3021.69 1567.02 3006.53 1582.05 2987.82 1582.05ZM2987.82 1519.73C2971.37 1519.73 2957.82 1532.89 2957.82 1548.86C2957.82 1564.83 2971.37 1577.98 2987.82 1577.98C3004.27 1577.98 3017.82 1564.83 3017.82 1548.86C3017.49 1532.89 3004.27 1519.73 2987.82 1519.73Z" fill="#FF8558"/>
<path d="M2024.84 868.546L2397.27 716.517C2407.93 713.669 2420.67 723.201 2425.59 737.569L2482.25 872.965C2487.16 887.332 2482.53 901.506 2471.87 904.354L2160.82 996.473L2126.13 1080.22L2102.78 1011.98L2045.45 1030.82C2034.79 1033.67 2022.05 1024.14 2017.14 1009.77L2008.27 901.982C2003.63 887.15 2014.18 871.394 2024.84 868.546Z" fill="#FF8658"/>
<path d="M2126.11 1116.13L2096.08 1028.33L2050.76 1043.51C2033.15 1048.34 2014.8 1035.98 2007.75 1015.39L2007.4 1013.11L1998.1 905.803C1992.21 886.078 2005.41 865.861 2021.21 860.74L2391.34 706.343C2408.17 701.73 2426.92 713.981 2433.96 734.576L2490.56 870.022C2497.73 890.979 2489.98 910.885 2473.15 915.497L2170.2 1007.22L2126.11 1116.13ZM2110.58 1000.64L2127.64 1050.5L2151.66 990.569L2465.06 895.586C2468.19 894.728 2471.18 887.191 2467.72 877.074L2411.12 741.627C2407.66 731.51 2400.86 726.655 2398 727.045L2028.4 880.505C2024.49 881.578 2016.66 891.232 2019.87 900.626L2020.22 902.901L2029.53 1010.21C2033.13 1019.5 2040.2 1023.88 2042.55 1023.24L2110.58 1000.64Z" fill="#FAAF3B"/>
<path d="M1829.46 944.949L1264.49 793.856C1247.58 789.334 1230.21 797.944 1225.21 813.321L1191.61 916.721C1186.61 932.099 1196.06 947.881 1212.97 952.402L1643.26 1067.48L1711.36 1164.07L1734.8 1091.96L1777.36 1103.34C1794.27 1107.86 1811.64 1099.25 1816.64 1083.87L1850.24 980.475C1856.23 965.94 1846.37 949.471 1829.46 944.949Z" fill="#FF8658"/>
<path d="M1715.04 1187.76L1637.34 1076.57L1211.6 961.543C1189.5 955.572 1176.83 934.226 1183.41 914.031L1217.14 810.399C1223.71 790.204 1247.1 778.601 1269.2 784.572L1832.78 936.845C1854.88 942.816 1867.54 964.162 1860.97 984.357L1827.24 1087.99C1820.67 1108.18 1797.28 1119.79 1775.18 1113.82L1742.61 1105.02L1715.62 1187.92L1715.04 1187.76ZM1263.32 802.642C1251.69 799.499 1239.61 805.487 1236.16 816.116L1202.43 919.748C1198.97 930.377 1205.51 941.394 1217.14 944.537L1650.43 1061.61L1708.71 1145L1728.95 1082.82L1780.71 1096.81C1792.34 1099.95 1804.42 1093.96 1807.88 1083.33L1841.61 979.703C1845.06 969.074 1838.53 958.057 1826.89 954.914L1263.32 802.642Z" fill="#FAAF3B"/>
<path d="M1214.39 930.407C1211.44 929.706 1209.22 928.749 1207.73 927.536L1209.41 920.907C1211.49 922.045 1213.73 922.901 1216.14 923.475C1219.26 924.219 1221.86 923.858 1223.93 922.392C1226 920.955 1227.47 918.517 1228.34 915.08L1245.21 848.27L1253.25 850.183L1236.53 916.343C1235.07 922.149 1232.41 926.279 1228.58 928.734C1224.77 931.195 1220.04 931.753 1214.39 930.407ZM1295.48 930.994L1292.23 907.729L1264.64 901.206L1250.83 920.439L1242.75 918.529L1286.81 857.871L1293.55 859.464L1303.78 932.958L1295.48 930.994ZM1291.54 900.127L1288.7 877.508C1288.31 874.661 1288.04 871.201 1287.9 867.126C1286.48 869.883 1284.69 872.858 1282.54 876.052L1269.26 894.86L1291.54 900.127ZM1371.91 878.161L1380.53 880.181L1339.07 941.229L1331.16 939.375L1323.09 866.717L1331.58 868.706L1336.63 915.691C1337.21 921.089 1337.45 926.256 1337.36 931.19C1339.72 926.512 1342.42 921.928 1345.46 917.439L1371.91 878.161ZM1425.66 961.422L1422.32 938.169L1394.71 931.746L1380.97 951.029L1372.89 949.148L1416.71 888.33L1423.46 889.9L1433.97 963.355L1425.66 961.422ZM1421.6 930.569L1418.67 907.961C1418.27 905.116 1417.99 901.656 1417.83 897.582C1416.43 900.343 1414.65 903.325 1412.51 906.527L1399.3 925.383L1421.6 930.569ZM1499.3 959.646C1497.86 965.52 1494.54 969.6 1489.35 971.887C1484.14 974.167 1477.76 974.436 1470.22 972.695C1462.02 970.802 1455.99 968.323 1452.11 965.257L1453.95 957.749C1456.49 959.589 1459.35 961.227 1462.52 962.663C1465.67 964.093 1468.88 965.186 1472.15 965.943C1477.49 967.175 1481.75 967.12 1484.95 965.779C1488.14 964.438 1490.17 962.017 1491.02 958.516C1491.6 956.172 1491.59 954.152 1491 952.456C1490.38 950.754 1489.1 949.022 1487.17 947.262C1485.24 945.502 1482.17 943.296 1477.97 940.645C1472.08 936.931 1468.14 933.223 1466.15 929.523C1464.15 925.852 1463.76 921.557 1464.96 916.639C1466.23 911.488 1469.23 907.841 1473.97 905.696C1478.71 903.58 1484.36 903.279 1490.91 904.793C1497.77 906.376 1503.77 909.047 1508.93 912.805L1504.77 918.998C1499.64 915.369 1494.4 912.935 1489.03 911.696C1484.8 910.719 1481.26 910.834 1478.42 912.041C1475.6 913.256 1473.81 915.44 1473.03 918.594C1472.47 920.908 1472.45 922.907 1472.98 924.589C1473.48 926.293 1474.63 927.997 1476.45 929.701C1478.23 931.427 1481.09 933.537 1485.01 936.033C1491.64 940.193 1495.96 944.019 1497.97 947.509C1499.98 951 1500.42 955.046 1499.3 959.646ZM1567.23 929.681C1559.66 927.945 1553.08 929.02 1547.51 932.907C1541.93 936.823 1538.11 943.035 1536.04 951.545C1533.9 960.315 1534.37 967.573 1537.44 973.32C1540.52 979.066 1545.96 982.835 1553.77 984.626C1558.6 985.733 1564.29 986.152 1570.84 985.881L1569.18 992.698C1563.99 993.341 1557.89 992.859 1550.88 991.252C1540.72 988.922 1533.6 984.128 1529.55 976.872C1525.48 969.645 1524.79 960.517 1527.47 949.489C1529.15 942.572 1531.95 936.827 1535.87 932.254C1539.78 927.681 1544.58 924.565 1550.27 922.906C1556 921.254 1562.24 921.203 1569.01 922.755C1576.25 924.416 1582.28 927.142 1587.08 930.933L1582.06 936.84C1577.39 933.264 1572.44 930.878 1567.23 929.681ZM1611.48 974.76L1604.76 1002.6L1596.75 1000.78L1612.92 933.804L1631.84 938.11C1640.31 940.037 1646.18 943.022 1649.45 947.066C1652.75 951.145 1653.63 956.341 1652.11 962.653C1649.97 971.514 1643.9 976.456 1633.9 977.479L1645.38 1011.84L1635.85 1009.68L1625.88 978.038L1611.48 974.76ZM1613.09 968.071L1624.1 970.575C1629.76 971.865 1634.19 971.711 1637.38 970.115C1640.52 968.54 1642.63 965.566 1643.68 961.194C1644.75 956.764 1644.18 953.273 1641.96 950.723C1639.75 948.143 1635.67 946.174 1629.7 944.817L1619.28 942.445L1613.09 968.071ZM1663.92 1016.04L1680 949.039L1688.01 950.851L1671.93 1017.85L1663.92 1016.04ZM1750.12 985.4C1748.5 992.179 1744.87 996.858 1739.22 999.436C1733.58 1002.01 1726.32 1002.31 1717.46 1000.31L1709.31 998.483L1703.02 1024.86L1695.01 1023.06L1710.99 956.045L1728.89 960.07C1746.14 963.947 1753.22 972.39 1750.12 985.4ZM1710.91 991.789L1718.16 993.419C1725.26 995.016 1730.68 995.058 1734.4 993.544C1738.1 992.024 1740.53 988.816 1741.7 983.919C1742.75 979.486 1742.05 975.848 1739.58 973.004C1737.12 970.16 1732.72 968.027 1726.39 966.605L1717.4 964.583L1710.91 991.789ZM1773.24 1040.59L1765.18 1038.79L1779.39 978.655L1757.53 973.787L1759.17 966.874L1810.94 978.405L1809.3 985.318L1787.45 980.45L1773.24 1040.59Z" fill="#333333" stroke="black" stroke-width="2.11017"/>
<path d="M2083.23 922.317L2091.43 952.878L2082.65 955.102L2062.94 881.678L2083.64 876.438C2092.94 874.084 2100.26 874.063 2105.6 876.375C2110.97 878.708 2114.59 883.346 2116.45 890.29C2119.06 900.005 2115.74 907.848 2106.5 913.818L2135.94 941.616L2125.52 944.253L2098.99 918.328L2083.23 922.317ZM2081.26 914.988L2093.31 911.938C2099.52 910.366 2103.75 908.029 2106 904.927C2108.27 901.79 2108.76 897.82 2107.47 893.02C2106.17 888.162 2103.74 885.038 2100.19 883.647C2096.67 882.249 2091.66 882.373 2085.16 884.019L2073.72 886.913L2081.26 914.988ZM2200.98 925.155L2158.82 935.825L2139.1 862.402L2181.26 851.731L2183.3 859.318L2149.92 867.765L2156.28 891.425L2187.62 883.492L2189.64 890.993L2158.29 898.926L2165.55 925.972L2198.93 917.526L2200.98 925.155ZM2275.96 906.178L2260.24 885.209L2229.95 892.874L2226.91 918.592L2217.99 920.849L2228.09 839.561L2235.5 837.683L2285.05 903.877L2275.96 906.178ZM2255.44 878.23L2240.54 857.693C2238.62 855.097 2236.5 851.866 2234.17 848C2234.26 851.394 2234.12 855.198 2233.75 859.414L2230.98 884.419L2255.44 878.23ZM2320.54 823.487C2312.24 825.587 2306.39 829.935 2303.01 836.528C2299.65 843.114 2299.23 851.08 2301.74 860.424C2304.33 870.054 2308.63 876.898 2314.66 880.958C2320.71 885.011 2328.03 885.949 2336.63 883.774C2341.9 882.441 2347.67 880.003 2353.95 876.461L2355.96 883.962C2351.23 887.174 2345.01 889.756 2337.3 891.707C2326.17 894.523 2316.7 893.426 2308.88 888.417C2301.05 883.379 2295.52 874.816 2292.27 862.729C2290.24 855.157 2289.93 848.155 2291.34 841.723C2292.73 835.3 2295.75 829.852 2300.39 825.38C2305.07 820.901 2311.13 817.719 2318.58 815.835C2326.52 813.824 2333.85 813.48 2340.55 814.805L2338.77 823.084C2332.35 821.9 2326.28 822.034 2320.54 823.487ZM2406.91 873.037L2398.12 875.261L2380.44 809.424L2356.47 815.491L2354.43 807.904L2411.12 793.558L2413.16 801.145L2389.23 807.2L2406.91 873.037Z" fill="#333333" stroke="black" stroke-width="2.09523"/>
<path d="M2641.39 949.408L2599.51 943.015L2597.67 937.067L2629.45 910.406L2631.55 916.911L2607.47 937.444L2639.43 942.499L2641.39 949.408Z" fill="#434F5E"/>
<path d="M2691.33 938.586L2690.91 939.123C2688.13 939.716 2685.64 940.18 2683.96 940.949C2682.16 941.438 2679.51 942.311 2676.31 943.441L2675.9 943.288C2674.51 937.444 2673.51 933.132 2672.75 930.069L2670.57 922.542C2668.64 916.265 2665.52 913.948 2661.07 915.309C2658.7 916.054 2657.01 917.513 2656.15 919.276C2655.56 920.911 2655.38 922.699 2656.02 924.791L2657.44 929.257C2658.84 934.411 2660.13 938.596 2661.3 941.81C2661.69 942.652 2662.09 943.494 2662.78 943.518C2663.47 943.542 2665.13 943.462 2667.49 942.717L2668.03 943.15L2668.81 945.523L2668.66 945.932C2666.16 946.396 2662.83 947.245 2658.1 948.735C2653.65 950.097 2650.04 951.074 2647.81 952.1L2647.4 951.948L2646.62 949.575L2647.05 949.038C2649.41 948.293 2650.81 947.652 2651.23 947.115C2651.66 946.578 2651.81 946.169 2651.56 944.919C2650.67 941.576 2649.28 935.732 2646.71 927.363L2642.72 914.528C2641.19 909.093 2639.9 904.908 2638.73 901.694C2638.33 900.852 2638.07 900.291 2637.25 899.986C2636.84 899.834 2635.18 899.914 2632.82 900.659L2632.27 900.226L2631.63 898.133L2632.06 897.596C2636.93 895.698 2641.55 893.238 2645.89 890.217L2646.72 890.521C2646.98 891.082 2647.36 892.614 2647.87 894.425C2649.39 900.55 2651.17 907.236 2653.35 914.763L2653.99 916.855L2658.99 909.441C2660.53 908.392 2662.08 907.342 2664.16 906.725C2668.05 905.62 2671.63 906.021 2674.22 907.906C2676.25 909.357 2678.26 912.187 2679.28 915.81C2679.42 916.091 2679.93 917.903 2680.42 920.404C2681.05 923.185 2681.82 925.558 2682.47 927.65C2683.62 931.554 2684.4 933.927 2684.92 935.05C2685.45 936.172 2685.99 936.605 2686.4 936.757C2686.82 936.91 2688.34 936.549 2690.56 936.213L2690.97 936.366L2691.33 938.586Z" fill="#434F5E"/>
<path d="M2719 929.046C2718.72 929.176 2718.42 930.004 2717.85 930.961C2716.7 932.875 2715.83 934.66 2715.11 936.031C2714.13 936.833 2712.75 937.481 2711.52 937.715C2707.95 938.701 2705.11 938.316 2703.11 936.845C2702.18 936.251 2701.39 935.244 2700.88 934.107C2700.25 932.686 2699.48 930.981 2699.02 928.448L2696.58 919.273L2693.89 909.53L2692.93 909.634L2690.87 910.257L2689.37 910.621L2688.96 910.466L2688.86 909.484L2688.88 908.786C2689.3 908.242 2689.73 907.699 2690.58 906.612C2691.43 905.526 2692.13 904.853 2692.7 903.896L2691.37 898.675C2690.76 896.556 2690.01 894.153 2689.27 891.749C2691.08 890.558 2692.33 889.626 2693.31 888.824C2694.29 888.021 2695.69 886.675 2697.64 885.07L2698.85 885.535C2699.3 888.765 2700.02 891.867 2700.76 894.27L2702.18 901.171L2703.41 900.937C2706.02 900.055 2708.36 899.303 2710.42 898.68L2710.95 899.119L2711.75 903.901L2711.6 904.315L2703.91 906.546L2707.45 919.675C2708.68 923.913 2709.42 926.317 2709.8 927.169C2710.31 928.306 2710.97 929.029 2711.78 929.339C2712.71 929.932 2713.94 929.698 2715.18 929.464C2716.13 929.36 2717.38 928.428 2718.64 927.496L2719 929.046Z" fill="#434F5E"/>
<path d="M2792.42 917.507L2792.26 917.907C2790.69 918.241 2787.84 918.788 2784.12 919.702C2780.98 920.371 2778.68 921.351 2777.4 921.563L2776.55 921.253C2775.13 914.814 2773.95 910.285 2772.88 907.387L2771.83 903.813C2770.77 900.239 2769.83 897.619 2769.29 896.509C2768.61 895.122 2767.36 893.979 2766.37 893.392C2764.97 892.649 2763.55 892.584 2761.69 893.041C2759.83 893.498 2758.25 894.51 2757.22 895.954C2756.19 897.399 2755.87 898.876 2756.69 900.54L2760.13 911.819L2761.98 917.735C2762.38 919.245 2762.92 920.355 2763.48 920.787C2763.62 921.065 2764.04 921.22 2764.75 921.253C2765.17 921.408 2766.46 921.195 2768.74 920.894L2769.16 921.048L2769.96 923.391L2769.52 923.913C2766.38 924.582 2763.24 925.251 2759.81 926.043C2755.8 927.079 2752.37 927.871 2749.5 929.095L2748.94 928.662L2748.28 926.598L2748.72 926.075C2750.15 925.463 2751.3 924.974 2751.87 924.729C2752.45 924.484 2752.6 924.084 2752.61 923.407C2752.63 922.729 2752.37 921.497 2751.57 919.155L2748.01 906.922C2747.36 904.18 2746.41 902.238 2745.45 900.973C2744.75 900.263 2743.77 899.675 2742.5 899.21C2741.37 899.022 2740.23 898.835 2738.66 899.169C2736.23 899.871 2734.64 900.883 2733.89 902.882C2733.3 903.805 2733.28 904.482 2733.13 904.882C2732.98 905.282 2733.39 906.114 2733.78 907.624L2736.43 915.882C2736.83 917.392 2737.49 919.457 2738.43 922.077C2739.36 924.696 2740.04 926.084 2740.31 926.638C2740.59 927.193 2741.3 927.226 2742.01 927.259C2742.72 927.291 2744 927.079 2745.29 926.867L2745.84 927.3L2746.64 929.642L2746.49 930.042C2744.21 930.343 2740.78 931.135 2736.49 932.294C2731.91 933.575 2728.19 934.489 2725.9 935.468L2725.34 935.036L2724.54 932.694L2724.69 932.294C2727.12 931.592 2728.56 930.98 2729 930.458C2729.57 930.213 2729.59 929.535 2729.33 928.303C2728.41 925.006 2727.35 921.432 2726.3 917.857L2724.71 912.496C2723.26 907.412 2721.9 904.637 2721.63 904.082C2721.07 903.65 2720.65 903.494 2719.65 903.584C2719.36 903.707 2718.08 903.919 2716.22 904.376L2715.66 903.943L2715 901.879L2715.15 901.479C2719.59 899.92 2724.34 897.562 2729.1 894.526L2730.23 894.713L2732.09 900.63L2737.23 893.408C2738.24 892.641 2739.68 892.029 2741.4 891.294C2744.54 890.625 2746.82 890.323 2748.8 890.821C2750.78 891.319 2752.46 892.616 2754.26 894.869L2759.68 887.524C2760.7 886.757 2762.28 885.745 2764.14 885.288C2769.14 884.162 2773.25 884.758 2776.17 887.875C2777.56 889.295 2778.64 891.515 2779.56 894.812C2779.82 896.044 2780.36 897.154 2780.35 897.831L2780.74 899.341C2781 900.573 2781.41 901.406 2781.25 901.806L2782.7 906.89C2783.9 910.742 2784.7 913.084 2785.24 914.194C2785.78 915.303 2786.06 915.858 2786.77 915.891C2787.19 916.046 2788.76 915.711 2791.04 915.409L2791.6 915.842L2792.42 917.507Z" fill="#434F5E"/>
<path d="M2819.77 912.758L2819.62 913.172C2817.16 913.638 2813.6 914.621 2809.21 915.994C2804.82 917.366 2801.26 918.349 2799.05 919.385L2798.52 918.945L2797.79 916.534L2797.94 916.12C2800.27 915.369 2801.65 914.722 2802.08 914.177C2802.5 913.633 2802.65 913.219 2802.42 911.949C2801.59 908.554 2800.3 902.619 2797.87 894.118L2794.38 880.953C2792.93 875.432 2791.72 871.182 2790.61 867.916C2790.23 867.061 2789.98 866.491 2789.17 866.18C2788.49 866.154 2787.14 866.101 2784.81 866.852L2784.28 866.412L2783.67 864.286L2783.82 863.872C2788.64 861.955 2793.2 859.469 2797.51 856.412L2798.32 856.724C2798.57 857.294 2798.92 858.849 2799.4 860.689C2800.82 866.909 2802.49 873.699 2804.54 881.344L2807.33 891.4C2809.75 899.901 2811.32 905.706 2812.44 908.972C2812.81 909.827 2813.19 910.682 2813.87 910.708C2814.55 910.735 2816.18 910.657 2818.51 909.907L2819.04 910.347L2819.77 912.758Z" fill="#434F5E"/>
<path d="M2857.5 886.273L2825.6 912.655L2823.49 906.15L2847.58 885.618L2815.61 880.563L2813.51 874.058L2855.38 880.451L2857.5 886.273Z" fill="#434F5E"/>
<path d="M987.841 1577.29L944.621 1570.72L943.008 1564.77L976.552 1537.52L978.488 1544.41L953.007 1565.39L985.906 1570.72L987.841 1577.29Z" fill="#434F5E"/>
<path d="M1037.51 1564.46L1037.19 1565.08C1034.29 1565.71 1031.71 1566.34 1029.77 1566.65C1027.84 1567.27 1025.26 1567.9 1021.71 1569.15L1021.06 1568.84C1019.77 1562.89 1018.81 1558.51 1017.84 1555.37L1015.58 1547.86C1013.64 1541.6 1010.42 1539.09 1005.9 1540.34C1003.32 1540.97 1001.71 1542.54 1000.74 1544.41C1000.1 1545.98 1000.1 1547.86 1000.42 1550.05L1001.71 1554.75C1003.32 1560.07 1004.61 1564.14 1005.58 1567.59C1005.9 1568.53 1006.55 1569.15 1006.87 1569.15C1007.52 1569.15 1009.13 1569.15 1011.71 1568.53L1012.35 1568.84L1013 1571.35L1012.68 1571.97C1010.1 1572.6 1006.55 1573.22 1001.71 1574.48C996.873 1575.73 993.325 1576.98 990.744 1577.61L990.099 1577.3L989.454 1574.79L989.777 1574.16C992.357 1573.54 993.97 1572.91 994.292 1572.29C994.615 1571.97 994.937 1571.35 994.615 1570.09C993.97 1566.65 992.357 1560.7 989.777 1552.24L986.229 1539.4C984.616 1534.08 983.326 1529.7 982.036 1526.25C981.713 1525.31 981.068 1524.69 980.745 1524.69C980.1 1524.69 978.488 1524.69 975.907 1525.31L975.262 1525L974.617 1522.81L974.94 1522.18C979.778 1520.3 984.616 1517.8 989.454 1514.98L990.422 1515.29C990.744 1515.92 991.067 1517.17 991.389 1519.05C993.002 1525.31 994.615 1532.2 996.873 1539.72L997.518 1541.91L1003 1534.39C1004.61 1533.14 1006.55 1532.51 1008.48 1531.89C1012.68 1530.64 1016.23 1531.26 1019.13 1533.14C1021.39 1534.71 1023 1537.52 1024.29 1541.28C1024.29 1541.6 1024.93 1543.16 1025.58 1545.98C1026.22 1548.8 1026.87 1551.3 1027.51 1553.5C1028.48 1557.25 1029.45 1559.76 1029.77 1561.01C1030.09 1561.95 1030.74 1562.58 1031.38 1562.89C1032.03 1563.2 1033.32 1562.89 1035.58 1562.26L1035.9 1562.58L1037.51 1564.46Z" fill="#434F5E"/>
<path d="M1071.05 1532.2C1071.05 1532.51 1071.37 1533.45 1071.7 1534.08L1071.37 1534.7C1068.15 1536.58 1063.63 1538.15 1057.83 1539.72C1056.86 1540.03 1055.25 1540.34 1052.99 1540.97C1050.73 1541.59 1049.44 1541.91 1048.15 1542.22C1049.44 1545.98 1051.38 1548.8 1054.6 1550.68C1057.83 1552.55 1061.05 1553.18 1064.92 1552.24C1067.5 1551.62 1070.41 1549.74 1073.31 1547.23L1074.6 1548.17L1073.95 1552.55C1070.73 1556 1066.86 1558.19 1062.34 1559.44C1056.21 1561.01 1051.38 1560.7 1046.86 1558.19C1042.67 1555.69 1039.77 1551.62 1037.83 1545.35C1035.89 1538.15 1036.22 1532.83 1038.8 1529.07C1042.67 1524.06 1046.86 1520.93 1051.05 1519.67C1055.89 1518.42 1059.76 1518.73 1063.31 1520.61C1067.18 1523.43 1069.76 1527.19 1071.05 1532.2ZM1060.41 1534.08C1058.47 1527.19 1055.25 1524.06 1050.73 1525.31C1045.89 1526.56 1044.6 1530.63 1046.54 1537.52L1046.86 1538.46C1048.47 1538.15 1051.38 1537.52 1055.25 1536.58C1057.18 1535.96 1059.12 1535.33 1060.73 1534.7C1060.41 1534.39 1060.41 1534.39 1060.41 1534.08Z" fill="#434F5E"/>
<path d="M1119.11 1542.53L1118.79 1543.16C1116.53 1543.47 1113.95 1544.1 1111.05 1545.04C1108.79 1545.66 1106.54 1546.29 1104.6 1546.92L1104.28 1546.6L1102.99 1541.28L1096.86 1549.11C1096.21 1549.74 1095.57 1550.36 1094.6 1550.67C1094.28 1550.99 1093.63 1550.99 1092.99 1551.3C1090.09 1552.24 1087.51 1551.93 1085.57 1550.67C1083.63 1549.42 1082.02 1547.23 1081.05 1544.1C1079.76 1540.03 1080.41 1536.9 1082.67 1534.39C1084.93 1531.89 1090.41 1528.75 1098.47 1524.68C1097.18 1520.61 1095.25 1518.11 1092.67 1517.17C1091.05 1516.54 1089.44 1516.54 1087.51 1517.17C1085.57 1517.79 1083.96 1518.42 1082.99 1519.67L1082.67 1523.74L1082.34 1524.06H1080.09L1079.76 1523.43L1078.8 1518.73C1082.34 1514.35 1085.25 1511.84 1087.18 1510.59C1088.15 1510.28 1089.12 1509.65 1090.73 1509.34C1095.89 1508.09 1100.08 1508.4 1102.99 1510.28C1105.25 1511.84 1106.86 1514.66 1107.83 1518.42C1108.15 1519.36 1108.47 1520.93 1109.12 1523.12C1110.08 1526.88 1110.73 1529.07 1111.05 1530.32C1112.02 1534.08 1112.99 1536.58 1113.31 1537.84C1113.63 1538.78 1114.28 1539.4 1114.92 1539.71C1115.57 1540.03 1116.86 1539.71 1118.47 1539.4L1119.11 1539.71V1542.53ZM1102.02 1537.52L1099.44 1528.13C1095.25 1530.32 1092.67 1531.89 1091.38 1533.45C1090.09 1535.02 1089.76 1536.9 1090.41 1539.09C1091.38 1542.53 1093.63 1544.1 1096.54 1543.16C1099.12 1542.22 1101.05 1540.34 1102.02 1537.52Z" fill="#434F5E"/>
<path d="M1169.11 1529.38L1168.78 1530.01C1166.2 1530.63 1163.62 1530.95 1161.69 1531.57C1159.75 1532.2 1156.85 1532.83 1153.62 1534.08L1153.3 1533.77C1152.98 1532.51 1152.66 1530.32 1151.69 1527.5C1151.04 1528.44 1150.08 1530.01 1148.46 1532.2C1146.85 1534.7 1145.88 1536.27 1145.24 1536.9C1144.59 1537.52 1143.3 1538.15 1141.37 1538.46C1136.85 1539.72 1132.66 1539.09 1128.79 1536.27C1124.92 1533.77 1122.34 1529.69 1121.05 1524.37C1119.43 1519.36 1119.43 1514.98 1120.72 1511.53C1121.05 1510.59 1122.34 1508.71 1124.59 1506.21C1127.17 1503.08 1129.11 1501.2 1130.4 1500.26C1131.69 1499.32 1132.98 1498.69 1134.92 1498.07C1137.82 1497.44 1140.4 1497.13 1143.3 1497.75L1142.66 1495.56C1140.72 1488.67 1139.43 1484.91 1138.79 1483.66C1138.46 1483.03 1137.82 1482.72 1136.85 1482.72C1136.53 1482.72 1135.24 1483.03 1132.98 1483.35L1132.34 1483.03L1131.69 1480.84L1132.01 1480.22C1136.85 1478.34 1141.69 1475.83 1146.53 1472.7L1147.49 1473.01C1147.49 1473.01 1147.82 1474.27 1148.46 1476.77C1149.75 1482.41 1152.01 1490.86 1155.24 1501.82L1158.78 1514.35C1160.72 1521.55 1162.01 1525.62 1162.65 1526.25C1162.98 1526.56 1163.3 1526.88 1163.62 1526.88C1164.27 1526.88 1165.56 1526.56 1167.82 1526.25L1168.46 1526.56L1169.11 1529.38ZM1147.49 1513.41L1145.56 1506.21C1142.98 1504.64 1140.72 1503.7 1138.79 1503.39C1137.5 1503.39 1136.21 1503.39 1134.92 1503.7C1131.37 1504.64 1129.43 1507.15 1129.43 1511.22C1129.43 1513.41 1129.75 1515.92 1130.4 1518.42C1132.01 1523.74 1134.27 1527.5 1137.5 1529.38C1139.43 1530.32 1141.37 1530.63 1143.62 1530.01C1145.56 1529.38 1147.17 1528.44 1148.46 1526.88C1149.75 1525.31 1150.08 1524.06 1150.08 1522.8C1149.75 1522.18 1149.11 1519.05 1147.49 1513.41Z" fill="#434F5E"/>
<path d="M1202.98 1497.13C1202.98 1497.44 1203.3 1498.38 1203.62 1499.01L1203.3 1499.63C1200.07 1501.51 1195.56 1503.08 1189.75 1504.64C1188.79 1504.96 1187.17 1505.27 1184.92 1505.89C1182.66 1506.52 1181.37 1506.83 1180.08 1507.15C1181.37 1510.91 1183.3 1513.72 1186.53 1515.6C1189.75 1517.48 1192.98 1518.11 1196.85 1517.17C1199.43 1516.54 1202.33 1514.98 1205.24 1512.16L1206.53 1513.1L1205.88 1517.48C1202.65 1520.93 1198.78 1523.12 1194.27 1524.37C1188.14 1525.94 1183.3 1525.62 1178.79 1523.12C1174.59 1520.61 1171.69 1516.54 1169.76 1510.28C1167.82 1503.08 1168.14 1497.75 1170.72 1493.99C1174.59 1488.98 1178.79 1485.85 1182.98 1484.6C1187.82 1483.35 1191.69 1483.66 1195.24 1485.54C1199.11 1488.36 1201.36 1491.8 1202.98 1497.13ZM1192.01 1498.69C1190.08 1491.8 1186.85 1488.98 1182.33 1489.92C1177.5 1491.18 1176.21 1495.25 1178.14 1502.14L1178.46 1503.08C1180.08 1502.76 1182.98 1502.14 1186.85 1501.2C1188.79 1500.57 1190.72 1499.94 1192.33 1499.32C1192.33 1499.32 1192.33 1499.01 1192.01 1498.69Z" fill="#434F5E"/>
<path d="M1232.97 1472.08L1234.59 1478.96C1234.91 1480.22 1235.23 1481.47 1235.55 1482.72L1233.94 1483.66C1232.33 1482.1 1230.07 1481.78 1228.14 1482.41C1226.2 1483.04 1224.59 1484.29 1223.94 1486.17C1223.3 1487.42 1223.3 1488.99 1223.94 1490.86L1226.52 1499.95C1227.17 1501.83 1227.81 1504.33 1229.1 1507.77C1229.43 1508.71 1229.75 1509.34 1230.39 1509.34C1231.04 1509.34 1232.97 1509.34 1236.2 1508.4L1236.84 1508.71L1237.49 1511.22L1237.17 1511.85C1233.3 1512.79 1229.43 1513.72 1225.56 1514.66C1220.72 1515.92 1217.17 1517.17 1214.59 1517.8L1213.94 1517.48L1213.3 1514.98L1213.62 1514.35C1216.2 1513.72 1217.81 1513.1 1218.14 1512.47C1218.46 1512.16 1218.78 1511.53 1218.46 1510.28C1217.81 1506.84 1216.85 1503.39 1215.56 1499.32L1213.94 1493.68C1212.33 1488.36 1211.36 1485.54 1210.72 1484.91C1210.4 1484.6 1209.75 1484.29 1208.78 1484.29C1208.46 1484.29 1207.17 1484.6 1205.24 1484.91L1204.59 1484.6L1203.95 1482.41L1204.27 1481.78C1208.78 1479.9 1213.62 1477.71 1218.46 1474.58L1219.43 1474.89L1221.69 1482.41C1222.65 1480.22 1224.27 1477.4 1225.88 1474.27C1226.85 1473.02 1228.14 1472.08 1230.07 1471.45C1231.04 1472.08 1232.01 1471.76 1232.97 1472.08Z" fill="#434F5E"/>
<path d="M1278.45 1481.47L1244.91 1508.71L1242.97 1501.82L1268.45 1480.84L1235.55 1475.52L1233.62 1468.63L1276.84 1475.21L1278.45 1481.47Z" fill="#434F5E"/>
<path d="M1685.73 808.872L1643.47 820.145L1639.28 815.448L1658.31 777.243L1662.83 782.567L1648.64 811.69L1680.89 803.548L1685.73 808.872Z" fill="#434F5E"/>
<path d="M1687.98 810.752L1662.5 750.313L1662.83 749.687L1667.02 746.242L1667.66 746.555L1693.15 806.994L1692.82 807.62L1688.63 811.065L1687.98 810.752Z" fill="#434F5E"/>
<path d="M1730.56 767.224L1731.85 771.295C1730.23 775.053 1727.98 778.184 1725.07 780.376C1720.23 784.134 1715.72 785.7 1710.88 785.074C1706.04 784.447 1701.85 781.942 1697.98 777.245C1694.43 772.861 1692.5 769.103 1692.5 765.345C1692.5 764.406 1692.82 762.527 1693.46 760.335C1694.75 755.637 1695.72 752.819 1696.37 751.566C1697.01 750.314 1698.3 748.748 1700.56 747.182C1703.46 744.99 1706.37 743.424 1708.95 742.798L1709.59 743.111C1709.91 743.424 1710.56 744.364 1711.53 746.243L1713.14 748.748C1713.46 749.061 1714.43 750.627 1716.36 753.132V753.758L1714.43 755.324H1713.78C1712.17 753.445 1710.88 752.506 1709.91 751.879C1707.66 750.94 1705.08 751.566 1702.5 753.758C1697.98 757.516 1698.3 761.9 1703.14 767.85C1706.69 771.921 1710.24 774.427 1714.11 775.366C1717.98 776.305 1721.85 775.366 1725.07 772.861C1727.01 771.295 1728.62 769.416 1729.27 767.224H1730.56Z" fill="#434F5E"/>
<path d="M1756.04 727.14C1762.17 734.343 1764.11 741.545 1761.2 748.122C1759.91 751.253 1757.66 754.385 1754.43 756.89C1749.59 760.961 1744.75 762.527 1739.59 761.9C1734.75 761.274 1729.92 758.456 1725.72 753.132C1719.6 745.929 1718.31 739.353 1721.21 733.09C1722.82 729.959 1725.08 727.14 1728.3 724.635C1735.08 719.311 1741.53 717.746 1747.66 720.564C1750.56 721.817 1753.14 724.009 1756.04 727.14ZM1749.27 736.848C1744.75 731.838 1741.21 728.393 1737.98 727.14C1735.08 725.888 1732.17 726.201 1729.92 728.08C1725.72 731.524 1726.69 736.848 1733.14 744.364C1741.21 753.758 1747.66 756.89 1752.49 752.819C1755.4 750.314 1756.04 747.495 1754.11 743.424C1753.14 741.858 1751.53 739.353 1749.27 736.848Z" fill="#434F5E"/>
<path d="M1809.91 709.603V710.229C1807.65 711.795 1805.72 713.361 1804.1 714.613C1802.49 715.866 1800.56 717.745 1797.98 719.937H1797.33C1796.69 718.997 1795.07 717.118 1793.14 714.613C1792.82 715.866 1792.49 717.745 1792.17 720.25C1791.85 723.381 1791.53 725.26 1791.2 725.887C1790.88 726.826 1789.91 727.766 1788.3 729.018C1784.75 731.837 1780.56 733.089 1776.04 732.15C1771.53 731.21 1767.33 728.705 1763.79 724.634C1760.24 720.563 1758.3 716.492 1758.3 713.047C1758.3 712.108 1758.63 709.916 1759.59 706.784C1760.56 703.026 1761.53 700.208 1762.17 698.955C1762.82 697.703 1764.11 696.45 1765.4 695.198C1767.66 693.319 1769.91 692.066 1772.82 691.44L1771.21 689.561C1766.69 684.237 1763.79 681.106 1762.5 680.166C1761.85 679.853 1761.21 679.853 1760.24 680.166C1759.92 680.479 1758.95 681.106 1757.01 682.358H1756.37L1755.08 680.479V679.853C1758.95 676.095 1762.17 672.024 1765.08 667.327L1766.04 667.014C1766.04 667.014 1767.01 668.266 1768.62 670.145C1772.17 674.843 1777.98 681.419 1785.4 690.5L1793.78 700.521C1798.62 706.471 1801.52 709.29 1802.49 709.603C1802.81 709.916 1803.46 709.916 1803.78 709.603C1804.43 709.29 1805.39 708.663 1807.33 707.411H1807.97L1809.91 709.603ZM1783.46 703.653L1778.62 697.703C1775.72 697.077 1773.14 697.077 1771.21 697.703C1769.91 698.016 1768.95 698.955 1767.66 699.582C1764.75 702.087 1764.11 704.905 1765.72 708.663C1766.69 710.542 1767.98 712.734 1769.59 714.613C1773.14 718.997 1777.01 721.189 1780.88 721.503C1782.82 721.816 1784.75 721.189 1786.69 719.624C1788.3 718.371 1789.27 716.805 1789.59 714.926C1789.91 713.047 1789.91 711.795 1789.27 710.542C1789.59 710.542 1787.33 708.037 1783.46 703.653Z" fill="#434F5E"/>
<path d="M1827.32 666.701C1827.64 667.014 1827.97 667.641 1828.61 668.267V668.893C1826.35 672.025 1823.13 675.156 1818.29 678.914C1817.32 679.54 1816.35 680.48 1814.42 682.046C1812.81 683.298 1811.52 684.551 1810.55 685.177C1813.13 687.996 1816.35 689.874 1819.9 690.501C1823.77 691.127 1827 690.188 1829.9 687.682C1831.84 686.117 1833.77 683.298 1835.38 679.853L1837 680.167L1838.29 684.238C1836.67 688.622 1834.42 692.38 1830.55 695.198C1825.71 698.956 1820.87 700.835 1816.03 700.208C1811.19 699.582 1806.68 697.077 1802.49 692.066C1797.65 686.43 1795.71 681.106 1796.68 676.722C1797.97 670.772 1800.55 666.075 1804.1 663.256C1807.97 660.125 1811.84 658.872 1815.71 659.185C1819.9 660.125 1823.77 662.63 1827.32 666.701ZM1818.29 672.651C1813.45 667.014 1809.26 665.762 1805.71 668.58C1801.84 671.711 1802.48 675.782 1807 681.419L1807.65 682.046C1808.94 681.106 1811.19 679.54 1814.42 677.035C1816.03 675.783 1817.32 674.53 1818.61 673.277C1818.61 672.964 1818.29 672.651 1818.29 672.651Z" fill="#434F5E"/>
<path d="M1864.09 642.901L1845.06 681.106L1840.55 675.783L1854.74 646.659L1822.48 654.801L1817.97 649.478L1860.22 638.204L1864.09 642.901Z" fill="#434F5E"/>
<path d="M2177.28 1103.24L2158.57 1064.72L2162.76 1060.02L2204.69 1071.92L2199.86 1077.25L2167.92 1068.48L2181.79 1097.91L2177.28 1103.24Z" fill="#434F5E"/>
<path d="M2175.99 1105.74L2233.08 1070.98H2233.72L2237.92 1074.43V1075.05L2180.83 1109.81H2180.18L2175.99 1106.37V1105.74Z" fill="#434F5E"/>
<path d="M2240.17 1132.67L2198.24 1120.77L2203.08 1115.45L2235.01 1124.22L2221.14 1094.78L2225.98 1089.46L2244.37 1127.98L2240.17 1132.67Z" fill="#434F5E"/>
<path d="M1601.03 1204.63L1278.8 1285.48C1269.48 1287.82 1264.66 1299.36 1268.62 1311.28L1295.53 1392.34C1299.48 1404.27 1310.64 1411.8 1319.96 1409.46L1565.63 1347.82L1637.02 1391.26L1618.22 1334.63L1642.85 1328.45C1652.18 1326.11 1657 1314.57 1653.04 1302.65L1626.13 1221.58C1621.7 1210.42 1610.35 1202.29 1601.03 1204.63Z" fill="#FF8658"/>
<path d="M1654.28 1417.88L1561.71 1361.01L1323.5 1423.05C1307.7 1427.16 1290.6 1416.6 1284.6 1398.57L1257.41 1316.84C1251.41 1298.81 1259.32 1281.74 1275.11 1277.62L1593.6 1194.68C1609.4 1190.57 1625.84 1201.3 1631.84 1219.33L1659.03 1301.06C1665.03 1319.09 1657.13 1336.16 1641.99 1340.11L1628.83 1343.53L1653.62 1418.05L1654.28 1417.88ZM1281.71 1297.45C1279.73 1297.97 1276.73 1303.97 1279.13 1311.19L1306.32 1392.91C1308.72 1400.13 1314.27 1403.9 1316.9 1403.22L1564.98 1338.61L1614.37 1368.85L1601.17 1329.19L1636.05 1320.1C1638.03 1319.59 1641.03 1313.58 1638.63 1306.37L1611.44 1224.64C1609.04 1217.43 1603.49 1213.65 1600.86 1214.34L1281.71 1297.45Z" fill="#FAAF3B"/>
<path d="M1624.5 1815.09L1282.35 1765.39C1273.31 1762.9 1269.68 1750.95 1273.96 1738.8L1306.83 1620.27C1311.11 1608.12 1321.76 1600.11 1330.8 1602.61L1597.76 1668.68L1666.62 1624.36L1646.29 1682.08L1696.21 1693C1705.25 1695.5 1708.87 1707.45 1704.59 1719.6L1653.08 1799.17C1649.43 1811.02 1633.54 1817.58 1624.5 1815.09Z" fill="#FF8658"/>
<path d="M1280.02 1773.66L1279.08 1773.39C1264.01 1769.11 1257.15 1751.79 1263.61 1733.44L1296.66 1614.55C1303.27 1595.76 1319.97 1585.13 1335.04 1589.42L1593.68 1655.25L1685.57 1595.85L1658.36 1673.16L1696.17 1681.98C1711.72 1686.4 1718.57 1703.73 1712.11 1722.07L1710.87 1724.12L1659.85 1802.83C1652.76 1820.03 1630.88 1829.19 1616.75 1825.17L1280.02 1773.66ZM1643 1649.09L1597.44 1678.42L1327.96 1609.51C1326.55 1609.11 1321.25 1612.41 1318.48 1620.27L1285.43 1739.16C1282.66 1747.02 1284.42 1752.33 1285.68 1753.17L1623.04 1804.38C1626.81 1805.45 1636.66 1802.48 1639.12 1795.5L1640.36 1793.45L1691.38 1714.74C1693.37 1707.61 1691.46 1702.75 1690.04 1702.34L1629.16 1688.4L1643 1649.09Z" fill="#FAAF3B"/>
<path d="M1359.9 1744.49L1350.77 1743.33L1321.5 1687.49L1321.14 1687.44C1320.69 1693.5 1320.06 1699.02 1319.25 1704.02L1313.68 1738.61L1306.32 1737.67L1316.11 1676.83L1325.12 1677.98L1354.33 1733.6L1354.69 1733.64C1354.76 1732.88 1355.01 1730.45 1355.42 1726.34C1355.86 1722.27 1356.26 1719.36 1356.62 1717.62L1362.24 1682.71L1369.69 1683.65L1359.9 1744.49ZM1443.19 1723.96C1441.62 1733.69 1437.61 1740.99 1431.16 1745.88C1424.71 1750.73 1416.53 1752.53 1406.63 1751.27C1396.54 1749.99 1389.18 1746.26 1384.56 1740.09C1379.94 1733.92 1378.44 1725.84 1380.05 1715.85C1381.64 1705.93 1385.64 1698.6 1392.04 1693.86C1398.42 1689.11 1406.68 1687.38 1416.83 1688.67C1426.68 1689.93 1433.92 1693.68 1438.55 1699.92C1443.21 1706.19 1444.75 1714.2 1443.19 1723.96ZM1388.48 1717C1387.16 1725.23 1388.14 1731.74 1391.43 1736.51C1394.7 1741.27 1400.09 1744.13 1407.62 1745.09C1415.23 1746.06 1421.31 1744.67 1425.87 1740.93C1430.45 1737.16 1433.41 1731.15 1434.74 1722.88C1436.05 1714.69 1435.12 1708.24 1431.92 1703.53C1428.74 1698.8 1423.36 1695.96 1415.81 1695C1408.2 1694.03 1402.08 1695.42 1397.44 1699.18C1392.78 1702.94 1389.79 1708.88 1388.48 1717ZM1513.26 1732.37C1511.65 1742.41 1507.34 1749.7 1500.34 1754.25C1493.35 1758.77 1484.07 1760.29 1472.51 1758.82L1453.53 1756.41L1463.32 1695.57L1484.35 1698.25C1495 1699.6 1502.87 1703.27 1507.95 1709.26C1513.01 1715.27 1514.78 1722.97 1513.26 1732.37ZM1504.77 1731.54C1506.05 1723.61 1504.77 1717.35 1500.93 1712.75C1497.1 1708.16 1490.75 1705.29 1481.88 1704.17L1470.31 1702.69L1462.48 1751.31L1472.18 1752.55C1481.71 1753.76 1489.19 1752.6 1494.64 1749.06C1500.09 1745.5 1503.47 1739.66 1504.77 1731.54ZM1561.8 1770.19L1523.55 1765.32L1533.34 1704.48L1571.59 1709.35L1570.57 1715.64L1540.3 1711.78L1537.15 1731.39L1565.58 1735.01L1564.58 1741.22L1536.15 1737.6L1532.54 1760.01L1562.81 1763.86L1561.8 1770.19ZM1575.36 1767.42C1575.66 1765.55 1576.36 1764.2 1577.48 1763.37C1578.6 1762.53 1580.03 1762.21 1581.8 1762.44C1583.61 1762.67 1584.95 1763.34 1585.81 1764.43C1586.7 1765.51 1586.99 1766.99 1586.69 1768.86C1586.4 1770.66 1585.66 1771.98 1584.46 1772.82C1583.26 1773.65 1581.77 1773.96 1579.98 1773.73C1578.4 1773.53 1577.15 1772.93 1576.23 1771.91C1575.33 1770.9 1575.04 1769.41 1575.36 1767.42ZM1589.94 1790.11C1587 1789.74 1584.74 1789.08 1583.15 1788.12L1584.12 1782.09C1586.28 1782.92 1588.56 1783.49 1590.96 1783.79C1594.06 1784.19 1596.54 1783.66 1598.41 1782.2C1600.31 1780.73 1601.51 1778.43 1602.01 1775.3L1611.8 1714.47L1619.77 1715.48L1610.07 1775.75C1609.22 1781.01 1607.06 1784.9 1603.57 1787.43C1600.12 1789.93 1595.57 1790.83 1589.94 1790.11ZM1669.47 1767.36C1668.61 1772.71 1665.75 1776.61 1660.89 1779.06C1656.03 1781.49 1649.85 1782.23 1642.35 1781.27C1634.21 1780.23 1628.09 1778.51 1624.01 1776.11L1625.11 1769.29C1627.77 1770.69 1630.71 1771.91 1633.92 1772.95C1637.13 1773.99 1640.37 1774.71 1643.62 1775.13C1648.94 1775.8 1653.09 1775.41 1656.07 1773.96C1659.05 1772.52 1660.8 1770.21 1661.32 1767.01C1661.66 1764.91 1661.45 1763.12 1660.71 1761.65C1659.96 1760.17 1658.58 1758.73 1656.54 1757.31C1654.48 1755.89 1651.29 1754.16 1646.96 1752.14C1640.9 1749.31 1636.72 1746.33 1634.42 1743.19C1632.12 1740.07 1631.32 1736.28 1632.04 1731.83C1632.8 1727.12 1635.39 1723.63 1639.81 1721.37C1644.24 1719.1 1649.72 1718.39 1656.26 1719.22C1663.09 1720.09 1669.19 1722 1674.54 1724.95L1671.07 1730.78C1665.75 1727.95 1660.41 1726.2 1655.04 1725.52C1650.82 1724.98 1647.4 1725.36 1644.76 1726.67C1642.13 1727.98 1640.58 1730.07 1640.12 1732.93C1639.78 1735.04 1639.94 1736.82 1640.6 1738.28C1641.27 1739.75 1642.55 1741.17 1644.45 1742.54C1646.35 1743.94 1649.33 1745.59 1653.38 1747.49C1660.23 1750.68 1664.79 1753.74 1667.06 1756.69C1669.34 1759.64 1670.14 1763.2 1669.47 1767.36Z" fill="#333333" stroke="black" stroke-width="1.86523"/>
<path d="M2344.44 1903.84L2666.43 1756.88C2675.81 1753.37 2679.18 1740.16 2673.57 1727.72L2612.85 1642.95C2607.24 1630.51 2595.12 1623.1 2585.27 1626.78L2365.12 1717.47L2286.85 1677.69L2313.51 1736.78L2289.58 1745.73C2280.19 1749.25 2276.82 1762.45 2282.43 1774.89L2316.85 1887.68C2322.46 1900.12 2335.05 1907.35 2344.44 1903.84Z" fill="#FF8658"/>
<path d="M2351.73 1914.12C2335.89 1920.15 2317.15 1910.08 2308.91 1891.82L2273.67 1777.41C2265.83 1760.05 2271.52 1741.18 2286.89 1735.32L2299.93 1730.35L2264.98 1652.88L2367.01 1704.78L2580.41 1615.1C2596.25 1609.06 2614.13 1618.42 2622.83 1636.5L2683.91 1722.28C2692.15 1740.53 2686.67 1759.84 2670.83 1765.88L2351.73 1914.12ZM2296.13 1755.8C2293.8 1756.69 2291.82 1763.19 2295.23 1770.76L2330.48 1885.17C2333.29 1891.4 2339.23 1894.88 2341.56 1893.99L2660.66 1745.75C2663.45 1744.69 2665.17 1738.81 2662.42 1731.51L2601.34 1645.74C2597.92 1638.17 2591.52 1634.87 2589.19 1635.76L2365.74 1729.79L2311.19 1702.06L2329.67 1743.02L2296.13 1755.8V1755.8Z" fill="#FAAF3B"/>
<path d="M1353.83 1587.69V1560.13H1339.64C1338.67 1557 1337.38 1554.18 1335.77 1551.36L1345.76 1541.65L1325.77 1522.24L1315.77 1531.94C1312.86 1530.38 1309.96 1529.13 1306.74 1528.19V1514.41H1278.35V1528.19C1275.13 1529.13 1272.22 1530.38 1269.32 1531.94L1259.32 1522.24L1239.33 1541.65L1249.32 1551.36C1247.71 1554.18 1246.42 1557 1245.45 1560.13H1231.26V1587.69H1245.45C1246.42 1590.82 1247.71 1593.64 1249.32 1596.45L1239.33 1606.16L1259.32 1625.58L1269.32 1615.87C1272.22 1617.44 1275.13 1618.69 1278.35 1619.63V1633.41H1306.74V1619.63C1309.96 1618.69 1312.86 1617.44 1315.77 1615.87L1325.77 1625.58L1345.76 1606.16L1335.77 1596.45C1337.38 1593.64 1338.67 1590.82 1339.64 1587.69H1353.83ZM1292.54 1600.84C1277.39 1600.84 1264.81 1588.63 1264.81 1573.91C1264.81 1558.88 1277.39 1546.98 1292.54 1546.98C1307.7 1546.98 1320.28 1558.88 1320.28 1573.91C1320.28 1588.63 1308.03 1600.84 1292.54 1600.84Z" fill="#FF8558"/>
<path d="M1922.33 1005.64C1916.85 1002.5 1910.72 1002.19 1905.24 1004.38L1890.4 979.33C1892.01 978.078 1893.63 976.512 1894.92 974.633C1896.21 972.754 1896.85 970.562 1897.17 968.683L1926.85 969.622C1927.49 975.259 1930.72 980.583 1936.2 983.714C1945.56 989.038 1957.49 986.219 1963.3 977.138C1968.78 968.057 1965.88 956.47 1956.52 950.833C1947.17 945.509 1935.23 948.328 1929.43 957.409C1928.14 959.288 1927.49 961.48 1927.17 963.359L1897.5 962.42C1896.85 956.783 1893.63 951.459 1888.14 948.328C1878.79 943.004 1866.86 945.823 1861.05 954.904C1855.57 963.985 1858.47 975.572 1867.82 981.209C1873.31 984.341 1879.43 984.654 1884.92 982.462L1900.08 1007.51C1898.46 1008.77 1896.85 1010.33 1895.56 1012.52C1890.08 1021.61 1892.98 1033.19 1902.34 1038.83C1911.69 1044.15 1923.62 1041.33 1929.43 1032.25C1934.91 1022.86 1931.69 1011.27 1922.33 1005.64ZM1952.97 956.157C1959.43 959.914 1961.36 967.743 1957.49 974.006C1953.62 980.27 1945.56 982.148 1939.11 978.391C1932.65 974.633 1930.72 966.804 1934.59 960.541C1938.46 954.278 1946.85 952.399 1952.97 956.157ZM1871.05 975.885C1864.6 972.128 1862.66 964.299 1866.53 958.036C1870.4 951.772 1878.47 949.894 1884.92 953.651C1891.37 957.409 1893.3 965.238 1889.43 971.501C1885.56 977.451 1877.5 979.643 1871.05 975.885ZM1905.56 1033.19C1899.11 1029.43 1897.17 1021.61 1901.05 1015.34C1904.92 1009.08 1912.98 1007.2 1919.43 1010.96C1925.88 1014.72 1927.82 1022.55 1923.95 1028.81C1920.08 1034.76 1912.01 1036.95 1905.56 1033.19Z" fill="#FF8558"/>
<path d="M886.609 2182.19L898.638 2176.14L1060.54 2479.49L1048.52 2485.54L886.609 2182.19Z" fill="#58595B"/>
<path d="M930.176 2171.12L942.204 2165.07L1104.11 2468.42L1092.08 2474.47L930.176 2171.12Z" fill="#58595B"/>
<path d="M899.051 2107.68L1113.6 1836.89L1124.34 1844.91L909.788 2115.7L899.051 2107.68Z" fill="#58595B"/>
<path d="M938.39 2149.17L927.746 2141.03L1142.24 1870.46L1153.2 1878.61L938.39 2149.17Z" fill="#58595B"/>
<path d="M1199.98 1826L1173.53 1800.32C1154.5 1781.84 1123.54 1782.16 1104.18 1800.95C1084.83 1819.73 1084.51 1849.8 1103.86 1868.27L1130.63 1894.27C1121.6 1933.41 1136.76 1980.7 1173.53 2016.4L1326.74 1867.65C1289 1831.95 1240.3 1817.54 1199.98 1826Z" fill="#00A79D"/>
<path d="M959.039 2141.34C959.039 2155.46 953.262 2169 942.979 2178.99C932.696 2188.97 918.75 2194.58 904.207 2194.58C889.665 2194.58 875.718 2188.97 865.435 2178.99C855.152 2169 849.375 2155.46 849.375 2141.34C849.375 2127.22 855.152 2113.68 865.435 2103.7C875.718 2093.72 889.665 2088.11 904.207 2088.11C918.75 2088.11 932.696 2093.72 942.979 2103.7C953.262 2113.68 959.039 2127.22 959.039 2141.34Z" fill="#00A79D"/>
<path opacity="0.2" d="M937.749 2141.35C937.749 2149.98 934.214 2158.27 927.924 2164.37C921.633 2170.48 913.101 2173.91 904.204 2173.91C895.308 2173.91 886.776 2170.48 880.485 2164.37C874.194 2158.27 870.66 2149.98 870.66 2141.35C870.66 2132.71 874.194 2124.42 880.485 2118.32C886.776 2112.21 895.308 2108.78 904.204 2108.78C913.101 2108.78 921.633 2112.21 927.924 2118.32C934.214 2124.42 937.749 2132.71 937.749 2141.35V2141.35Z" fill="black"/>
<path d="M934.844 2468.9H1231.26V2507.74H934.844V2468.9Z" fill="#2B190E"/>
<path d="M1528.32 2525.27L1585.08 1919.63C1585.08 1919.63 1602.82 1905.85 1644.43 1894.89C1753.77 1865.77 1871.82 1843.22 1941.17 1791.86H2050.83C2050.83 1791.86 2137.92 1856.37 2297.58 1888.63C2351.12 1899.59 2375.96 1919.94 2375.96 1919.94L2435.63 2525.58H1528.32V2525.27Z" fill="#EDEDED"/>
<path d="M2099.22 1896.14L1982.13 1911.17L1865.38 1896.14V1711.07H2099.22V1896.14Z" fill="#F1C28C"/>
<path d="M1750.22 1424.22C1753.77 1450.21 1758.6 1470.25 1760.54 1494.99C1760.54 1494.99 1777.63 1585.18 1793.12 1627.14C1808.92 1669.11 1829.89 1688.52 1842.79 1711.07C1855.69 1733.62 1894.39 1791.55 1982.13 1783.72C1982.13 1783.72 2056.96 1796.56 2108.56 1725.79C2108.56 1725.79 2171.46 1645.31 2181.13 1574.22C2188.23 1521.61 2199.84 1476.83 2206.62 1428.29C2019.86 1514.41 1817.63 1450.53 1750.22 1424.22Z" fill="#4D4D4D"/>
<path d="M2206.94 1428.29C2209.2 1411.38 2211.13 1394.16 2212.1 1375.99C2215.33 1305.22 2213.71 1253.55 2150.82 1200.31C2087.92 1147.08 2021.8 1148.64 1982.45 1148.64C1943.1 1148.64 1806.02 1135.8 1751.19 1285.81C1744.09 1353.13 1746.35 1392.9 1750.55 1424.53C1817.63 1450.52 2019.87 1514.41 2206.94 1428.29Z" fill="#4D4D4D"/>
<path d="M2172.43 1332.47C2172.43 1332.47 2208.56 1625.89 2077.28 1627.46C2077.28 1627.46 1993.74 1562.95 1886.02 1627.46C1886.02 1627.46 1761.52 1658.15 1786.67 1324.32C1786.67 1324.32 1836.34 1235.7 1984.39 1313.05C2133.08 1390.4 2172.43 1332.47 2172.43 1332.47Z" fill="#FFD5A4"/>
<path d="M2040.19 1651.57C2040.19 1664.1 2026.32 1674.43 2009.23 1674.43H1950.85C1933.75 1674.43 1919.88 1664.1 1919.88 1651.57C1919.88 1639.04 1933.75 1628.71 1950.85 1628.71H2009.23C2026.32 1628.71 2040.19 1639.04 2040.19 1651.57Z" fill="#FFD7A5"/>
<path d="M1943.75 1411.69H1888.92H1835.05C1835.05 1411.69 1815.38 1418.27 1816.02 1451.15C1816.67 1484.03 1819.89 1492.49 1819.89 1492.49C1819.89 1492.49 1835.38 1532.57 1889.89 1533.2C1944.39 1532.57 1959.23 1492.49 1959.23 1492.49C1959.23 1492.49 1962.46 1484.03 1963.1 1451.15C1963.75 1418.27 1943.75 1411.69 1943.75 1411.69ZM1944.39 1487.79C1944.07 1488.42 1932.14 1517.54 1889.89 1517.85C1849.57 1517.23 1836.02 1491.23 1834.41 1487.16C1834.09 1485.28 1831.83 1475.89 1831.51 1450.84C1831.18 1435.49 1836.34 1429.23 1839.25 1427.04H1940.2C1942.46 1428.92 1947.94 1435.18 1947.62 1450.84C1946.97 1479.02 1944.72 1487.48 1944.39 1487.79Z" fill="#575656"/>
<path d="M1845.7 1484.03V1454.6L1855.38 1441.44H1892.79L1845.7 1484.03Z" fill="#F9F3F6"/>
<path d="M2124.37 1411.69H2069.54H2015.67C2015.67 1411.69 1996 1418.27 1996.64 1451.15C1997.29 1484.03 2000.51 1492.49 2000.51 1492.49C2000.51 1492.49 2016 1532.57 2070.51 1533.2C2125.02 1532.57 2139.85 1492.49 2139.85 1492.49C2139.85 1492.49 2143.08 1484.03 2143.72 1451.15C2144.05 1418.27 2124.37 1411.69 2124.37 1411.69ZM2125.02 1487.79C2124.69 1488.42 2112.76 1517.54 2070.51 1517.85C2030.19 1517.23 2016.64 1491.23 2015.03 1487.16C2014.71 1485.28 2012.45 1475.89 2012.13 1450.84C2011.8 1435.49 2016.96 1429.23 2019.87 1427.04H2120.82C2123.08 1428.92 2128.56 1435.18 2128.24 1450.84C2127.6 1479.02 2125.02 1487.48 2125.02 1487.79Z" fill="#575656"/>
<path d="M2026.32 1484.03V1454.6L2036 1441.44H2073.42L2026.32 1484.03Z" fill="#F9F3F6"/>
<path d="M1751.84 1430.48H1822.47V1449.27H1751.84V1430.48Z" fill="#575656"/>
<path d="M1954.07 1430.48H2006V1449.27H1954.07V1430.48Z" fill="#575656"/>
<path d="M2130.82 1432.05H2201.46V1450.84H2130.82V1432.05Z" fill="#575656"/>
<path d="M2181.79 1571.4C2181.79 1571.4 2185.98 1515.66 2184.69 1493.74C2183.4 1471.82 2188.56 1402.61 2226.62 1441.44C2264.68 1480.27 2241.46 1579.86 2181.79 1571.4Z" fill="#FBD3A3"/>
<path d="M1780.22 1571.4C1780.22 1571.4 1776.03 1515.66 1777.32 1493.74C1778.61 1471.82 1773.45 1402.61 1735.39 1441.44C1697.33 1480.27 1720.55 1579.86 1780.22 1571.4Z" fill="#FBD3A3"/>
<path d="M1865.38 1832.26L1808.29 1852.3C1808.29 1852.3 1807 1953.45 1978.59 1953.45C2150.18 1953.45 2153.08 1845.1 2153.08 1845.1L2099.22 1820.67C2099.22 1820.67 2077.61 1892.07 1982.14 1892.07C1886.66 1892.07 1865.38 1832.26 1865.38 1832.26Z" fill="#6D6E71"/>
<path d="M2375.96 1919.63C2375.96 1919.63 2515.94 2195.83 2531.74 2314.21C2547.55 2432.58 2571.09 2493.64 2504.01 2515.56C2436.92 2537.48 2152.76 2515.56 2152.76 2515.56C2152.76 2515.56 2281.13 2247.19 2281.13 2176.42C2281.45 2105.02 2358.22 1908.04 2375.96 1919.63Z" fill="#5EAED5"/>
<path d="M1585.41 1919.63C1585.41 1919.63 1445.42 2195.83 1429.62 2314.21C1413.81 2432.58 1390.27 2493.64 1457.36 2515.56C1524.45 2537.17 1808.6 2515.56 1808.6 2515.56C1808.6 2515.56 1680.23 2247.19 1680.23 2176.42C1679.91 2105.02 1603.15 1908.04 1585.41 1919.63Z" fill="#5EAED5"/>
<path d="M116.559 2510.55H3835.78V2588.84H116.559V2510.55Z" fill="#231F20"/>
<path d="M232.355 2590.41H3719.67V3028.83H232.355V2590.41Z" fill="#6D5F56"/>
<path d="M1548.32 2477.36C1548.32 2484.25 1555.09 2489.89 1563.48 2489.89H2400.8C2409.18 2489.89 2415.96 2484.25 2415.96 2477.36C2415.96 2470.47 2409.18 2464.84 2400.8 2464.84H1563.48C1555.09 2465.15 1548.32 2470.47 1548.32 2477.36Z" fill="#A7A9AC"/>
<path d="M1551.22 2490.51C1559.61 2510.56 1561.87 2507.74 1636.37 2507.74H1995.04V2481.43L1548.32 2478.62C1548.32 2478.62 1550.26 2487.7 1551.22 2490.51Z" fill="#808285"/>
<path d="M2412.73 2490.52C2404.34 2510.56 2402.09 2507.74 2327.58 2507.74H1968.91V2481.43L2415.63 2478.62C2415.63 2478.62 2414.02 2487.7 2412.73 2490.52Z" fill="#808285"/>
<path d="M1577.99 2486.76C1577.99 2508.68 1596.37 2503.67 1618.95 2503.67H2344.99C2367.57 2503.67 2385.95 2508.68 2385.95 2486.76V2050.53C2385.95 2028.61 2367.57 2010.76 2344.99 2010.76H1618.95C1596.37 2010.76 1577.99 2028.61 1577.99 2050.53V2486.76V2486.76Z" fill="#939598"/>
<path d="M1577.99 2474.86V2050.53C1577.99 2028.61 1596.37 2010.76 1618.95 2010.76H2344.99C2367.57 2010.76 2385.95 2028.61 2385.95 2050.53V2474.86H1577.99Z" fill="#939598"/>
<path opacity="0.2" d="M1608.64 2045.21V2409.72L1986.66 2045.21" fill="#F1F2F2"/>
<path d="M1147.39 2219.63L1152.23 2220.57L1187.71 2390.93L1183.19 2391.87L1147.39 2219.63Z" fill="#1E8481"/>
<path d="M1135.14 2223.39L1139.33 2221.2L1175.14 2393.43L1170.62 2394.37L1135.14 2223.39Z" fill="#1E8481"/>
<path d="M1139.07 2221.19L1147.6 2219.51L1183.58 2391.67L1175.04 2393.35L1139.07 2221.19Z" fill="#22A0A0"/>
<path d="M1147.4 2219.63C1147.4 2219.63 1145.78 2223.7 1144.17 2223.7C1142.56 2223.7 1139.33 2221.2 1138.69 2221.51C1138.04 2221.83 1138.04 2224.96 1136.75 2224.96C1135.46 2225.27 1134.82 2224.02 1134.82 2224.02L1137.72 2197.71L1151.91 2220.57C1152.23 2220.57 1150.3 2224.02 1147.4 2219.63Z" fill="#F3E1D1"/>
<path d="M1143.2 2205.85L1138.04 2197.4L1137.07 2207.11C1137.07 2207.11 1140.62 2208.36 1143.2 2205.85Z" fill="#22A0A0"/>
<path d="M1179.65 2214.93L1184.81 2215.87L1212.23 2387.79L1207.71 2388.42L1179.65 2214.93Z" fill="#84B285"/>
<path d="M1167.39 2218.07L1171.59 2216.19L1199.65 2389.67L1194.81 2390.3L1167.39 2218.07Z" fill="#84B285"/>
<path d="M1171.65 2216.2L1180.25 2214.91L1207.94 2388.52L1199.33 2389.81L1171.65 2216.2Z" fill="#93CF97"/>
<path d="M1179.97 2214.93C1179.97 2214.93 1178.36 2218.69 1176.75 2218.69C1175.14 2218.69 1171.91 2215.87 1171.59 2216.19C1170.94 2216.5 1170.62 2219.32 1169.33 2219.63C1168.04 2219.94 1167.39 2218.38 1167.39 2218.38L1171.59 2192.07L1184.81 2215.56C1184.81 2215.87 1182.55 2219.32 1179.97 2214.93Z" fill="#F3E1D1"/>
<path d="M1176.1 2200.84L1171.27 2192.39L1169.65 2201.78C1169.97 2201.78 1173.52 2203.35 1176.1 2200.84Z" fill="#93CF97"/>
<path d="M1297.05 2222.76L1301.24 2225.27L1267.05 2395.94L1262.54 2395L1297.05 2222.76Z" fill="#84B285"/>
<path d="M1284.15 2221.51L1288.99 2221.2L1254.48 2393.43L1249.96 2392.81L1284.15 2221.51Z" fill="#84B285"/>
<path d="M1288.66 2221.2L1297.05 2222.76L1262.54 2395L1254.15 2393.43L1288.66 2221.2Z" fill="#93CF97"/>
<path d="M1297.06 2222.76C1297.06 2222.76 1294.15 2225.9 1292.54 2225.27C1290.93 2224.64 1288.99 2220.89 1288.35 2221.2C1287.7 2221.51 1286.41 2224.02 1285.12 2223.7C1283.83 2223.39 1283.83 2222.14 1283.83 2222.14L1296.73 2198.96L1300.93 2225.58C1301.25 2225.27 1298.02 2227.77 1297.06 2222.76Z" fill="#F3E1D1"/>
<path d="M1298.35 2208.36L1296.74 2198.65L1291.9 2207.11C1292.22 2207.11 1295.12 2209.92 1298.35 2208.36Z" fill="#93CF97"/>
<path d="M1221.57 2214.31L1226.09 2215.87V2389.68H1221.57V2214.31Z" fill="#D35E5E"/>
<path d="M1208.68 2215.25L1213.19 2214.31V2389.68H1208.68V2215.25Z" fill="#D35E5E"/>
<path d="M1212.86 2214.31H1221.57V2389.99H1212.86V2214.31Z" fill="#F06766"/>
<path d="M1221.58 2214.31C1221.58 2214.31 1219.32 2217.75 1217.71 2217.44C1216.09 2217.13 1213.51 2214 1212.87 2214.31C1212.22 2214.62 1211.58 2217.44 1210.29 2217.44C1209 2217.44 1208.68 2216.19 1208.68 2216.19L1216.74 2190.82L1226.09 2216.19C1226.09 2215.87 1223.51 2219.01 1221.58 2214.31Z" fill="#F3E1D1"/>
<path d="M1220.29 2199.9L1217.06 2190.82L1214.16 2199.9C1213.84 2199.9 1217.06 2201.78 1220.29 2199.9Z" fill="#F06766"/>
<path d="M1261.25 2216.81L1265.77 2219.01L1242.87 2391.55L1238.03 2390.93L1261.25 2216.81Z" fill="#1E8481"/>
<path d="M1248.35 2216.5L1253.19 2215.87L1229.97 2389.99L1225.45 2389.36L1248.35 2216.5Z" fill="#1E8481"/>
<path d="M1229.86 2389.83L1252.86 2215.57L1261.5 2216.65L1238.5 2390.9L1229.86 2389.83Z" fill="#22A0A0"/>
<path d="M1261.58 2216.81C1261.58 2216.81 1259 2219.95 1257.38 2219.63C1255.77 2219.01 1253.51 2215.56 1253.19 2215.87C1252.54 2216.19 1251.58 2218.69 1249.96 2218.69C1248.67 2218.69 1248.35 2217.13 1248.35 2217.13L1259.96 2193.01L1265.77 2219.32C1265.77 2219.01 1262.54 2221.82 1261.58 2216.81Z" fill="#F3E1D1"/>
<path d="M1261.9 2202.41L1259.64 2193.01L1255.45 2201.78C1255.77 2201.47 1258.67 2203.98 1261.9 2202.41Z" fill="#22A0A0"/>
<path d="M1293.19 2507.74H1150.95L1132.57 2282.26H1311.58L1293.19 2507.74Z" fill="#8B5E3C"/>
<path d="M1129.66 2280.39H1314.48V2323.6H1129.66V2280.39Z" fill="#8B5E3C"/>
<path d="M2450.79 2394.69V2427.57C2450.79 2450.12 2469.82 2468.59 2493.05 2468.59H2499.17V2477.99C2499.17 2494.27 2512.72 2507.74 2529.82 2507.74H2616.9C2633.67 2507.74 2647.54 2494.58 2647.54 2477.99V2327.67H2499.17V2353.66H2493.05C2469.82 2353.66 2450.79 2372.14 2450.79 2394.69ZM2474.34 2394.69C2474.34 2384.67 2482.72 2376.52 2493.05 2376.52H2499.17V2446.04H2493.05C2482.72 2446.04 2474.34 2437.9 2474.34 2427.88V2394.69Z" fill="#ED6B47"/>
<path d="M3298.43 2495.21C3298.43 2495.21 3285.2 2481.74 3268.43 2467.34C3251.66 2452.93 3253.92 2441.97 3253.92 2441.97L3249.4 2384.04H3146.51H3141.35H3038.46L3033.95 2441.97C3033.95 2441.97 3036.2 2452.62 3019.43 2467.34C3002.66 2481.74 2989.44 2495.21 2989.44 2495.21C2989.44 2495.21 2987.5 2498.34 2987.5 2503.04C2987.5 2507.74 2990.4 2507.74 3002.01 2507.74C3012.34 2507.74 3116.84 2507.74 3141.35 2507.74C3144.58 2507.74 3146.51 2507.74 3146.51 2507.74C3171.03 2507.74 3275.53 2507.74 3285.85 2507.74C3297.46 2507.74 3300.36 2507.42 3300.36 2503.04C3300.36 2498.34 3298.43 2495.21 3298.43 2495.21Z" fill="#939598"/>
<path d="M3658.39 2344.58C3658.39 2372.45 3635.17 2395 3606.46 2395H2681.73C2653.03 2395 2629.8 2372.45 2629.8 2344.58V1788.73C2629.8 1760.86 2653.03 1738.32 2681.73 1738.32H3606.14C3634.84 1738.32 3658.07 1760.86 3658.07 1788.73V2344.58H3658.39Z" fill="#58595B"/>
<path d="M3658.39 2329.24V1788.73C3658.39 1760.86 3635.17 1738.32 3606.46 1738.32H2681.73C2653.03 1738.32 2629.8 1760.86 2629.8 1788.73V2329.24H3658.39Z" fill="#58595B"/>
<path d="M1172.24 1237.58H702.941V882.777H1172.24V1237.58ZM722.294 1218.79H1152.89V901.567H722.294V1218.79Z" fill="#58595B"/>
<path d="M940.334 1055.33H736.488V914.093H940.334V1055.33ZM755.841 1036.54H921.304V932.569H755.841V1036.54Z" fill="#58595B"/>
<path d="M831.315 1128.6H736.488V1050.94H831.315V1128.6ZM755.841 1109.82H811.963V1069.42H755.841V1109.82Z" fill="#58595B"/>
<path d="M940.327 1128.6H845.5V1050.94H940.327V1128.6ZM864.852 1109.82H921.297V1069.42H865.175V1109.82H864.852Z" fill="#58595B"/>
<path d="M949.688 923.176H1067.74V933.197H949.688V923.176Z" fill="#58595B"/>
<path d="M949.688 947.914H1109.02V957.935H949.688V947.914Z" fill="#58595B"/>
<path d="M949.688 989.877H1130.63V999.898H949.688V989.877Z" fill="#58595B"/>
<path d="M949.688 1012.42H1130.63V1022.44H949.688V1012.42Z" fill="#58595B"/>
<path d="M949.688 1034.97H1130.63V1044.99H949.688V1034.97Z" fill="#58595B"/>
<path d="M949.688 1057.52H1130.63V1067.54H949.688V1057.52Z" fill="#58595B"/>
<path d="M949.688 1080.06H1130.63V1090.09H949.688V1080.06Z" fill="#58595B"/>
<path d="M990.652 1119.21H1089.35V1129.23H990.652V1119.21Z" fill="#58595B"/>
<path d="M990.652 1143.01H1089.35V1153.03H990.652V1143.01Z" fill="#58595B"/>
<path d="M990.652 1167.12H1089.35V1177.14H990.652V1167.12Z" fill="#58595B"/>
<path d="M959.355 1119.21H971.935V1129.23H959.355V1119.21Z" fill="#58595B"/>
<path d="M959.355 1143.01H971.935V1153.03H959.355V1143.01Z" fill="#58595B"/>
<path d="M959.355 1167.12H971.935V1177.14H959.355V1167.12Z" fill="#58595B"/>
<path d="M1399.09 1345.35L1390.38 1346.98L1383.59 1312.72L1344.1 1320.09L1350.89 1354.35L1342.17 1355.98L1327.75 1283.16L1336.46 1281.53L1342.6 1312.52L1382.09 1305.15L1375.96 1274.16L1384.67 1272.53L1399.09 1345.35ZM1442.71 1337.21L1434 1338.84L1421.07 1273.54L1397.29 1277.98L1395.8 1270.45L1452.02 1259.96L1453.51 1267.48L1429.78 1271.91L1442.71 1337.21ZM1510.91 1324.48L1472.68 1264.65L1472.25 1264.73C1473.76 1269.77 1475.21 1275.8 1476.6 1282.83L1485.78 1329.17L1477.72 1330.67L1463.3 1257.85L1476.44 1255.4L1512.06 1311.04L1512.5 1310.95L1524.55 1246.42L1537.56 1243.99L1551.98 1316.81L1543.27 1318.43L1533.97 1271.5C1532.91 1266.12 1532 1260.24 1531.25 1253.85L1530.81 1253.93L1517.92 1323.17L1510.91 1324.48ZM1572.52 1312.97L1558.09 1240.15L1566.81 1238.53L1579.71 1303.7L1612.81 1297.52L1614.33 1305.17L1572.52 1312.97Z" fill="#333333" stroke="black" stroke-width="2.04763"/>
<path d="M2342.66 1028.84L2680.04 1121.11C2689.65 1123.06 2694.94 1135.03 2691.79 1147.48L2648.78 1235.28C2645.63 1247.73 2635.1 1256.5 2625.49 1254.56L2396.67 1200.61L2328.01 1248.87L2342.97 1189.74L2318.09 1184.71C2308.48 1182.77 2303.19 1170.79 2306.34 1158.34L2318.8 1048C2322.08 1035.03 2332.49 1026.78 2342.66 1028.84Z" fill="#FF8658"/>
<path d="M2331.06 1198.26L2317.59 1195.47C2301.32 1192.1 2292.67 1174.91 2297.02 1157.68L2310.14 1044.95C2314.89 1026.15 2330.8 1014.6 2347.63 1018.09L2681.85 1111.54C2698.12 1114.91 2706.77 1132.09 2701.63 1152.47L2659.03 1239.29C2654.28 1258.1 2638.38 1269.64 2621.54 1266.16L2399.38 1212.97L2310.7 1276.5L2330.5 1198.15L2331.06 1198.26ZM2627.81 1246.02C2630.05 1246.48 2635.73 1242.71 2638.24 1232.78L2680.83 1145.96C2682.81 1138.12 2680.07 1132.61 2676.71 1131.91L2342.48 1038.46C2340.24 1038 2334.56 1041.77 2332.85 1048.56L2319.73 1161.28C2317.75 1169.12 2321.05 1174.75 2323.3 1175.21L2359.21 1182.66L2348.78 1223.92L2396.24 1190.33L2627.81 1246.02Z" fill="#FAAF3B"/>
<path d="M2419.01 1091.16C2408.02 1088.97 2398.54 1090.7 2390.56 1096.36C2382.63 1102.03 2377.28 1110.89 2374.52 1122.94C2371.68 1135.37 2372.55 1145.56 2377.12 1153.52C2381.73 1161.49 2389.73 1166.61 2401.1 1168.88C2408.08 1170.27 2416.31 1170.67 2425.81 1170.1L2423.6 1179.77C2416.11 1180.83 2407.26 1180.34 2397.05 1178.3C2382.33 1175.37 2371.92 1168.89 2365.82 1158.85C2359.74 1148.77 2358.48 1135.94 2362.04 1120.34C2364.28 1110.57 2368.18 1102.41 2373.76 1095.85C2379.29 1089.28 2386.14 1084.73 2394.3 1082.19C2402.49 1079.66 2411.52 1079.37 2421.38 1081.34C2431.89 1083.43 2440.67 1087.09 2447.71 1092.3L2440.58 1100.77C2433.79 1095.87 2426.6 1092.67 2419.01 1091.16ZM2507.12 1172.53C2505.21 1180.86 2500.53 1186.73 2493.07 1190.14C2485.62 1193.51 2476.42 1194.11 2465.47 1191.93C2453.59 1189.56 2444.78 1186.3 2439.05 1182.16L2441.48 1171.54C2445.24 1173.98 2449.42 1176.17 2454.03 1178.09C2458.64 1180.01 2463.33 1181.44 2468.08 1182.39C2475.83 1183.93 2482 1183.69 2486.57 1181.67C2491.14 1179.69 2493.99 1176.21 2495.13 1171.24C2495.88 1167.96 2495.8 1165.13 2494.88 1162.75C2493.95 1160.37 2492.08 1157.97 2489.25 1155.56C2486.38 1153.13 2481.87 1150.14 2475.73 1146.56C2467.13 1141.57 2461.33 1136.51 2458.31 1131.36C2455.28 1126.24 2454.56 1120.22 2456.15 1113.29C2457.83 1105.96 2462.06 1100.71 2468.85 1097.55C2475.64 1094.4 2483.81 1093.77 2493.36 1095.67C2503.33 1097.65 2512.09 1101.21 2519.63 1106.33L2513.82 1115.18C2506.31 1110.25 2498.64 1107.01 2490.81 1105.45C2484.66 1104.23 2479.56 1104.52 2475.52 1106.34C2471.48 1108.16 2468.95 1111.29 2467.93 1115.75C2467.18 1119.04 2467.2 1121.85 2468.01 1124.21C2468.81 1126.57 2470.54 1128.92 2473.18 1131.25C2475.81 1133.63 2480.01 1136.49 2485.76 1139.83C2495.47 1145.46 2501.83 1150.7 2504.83 1155.54C2507.84 1160.37 2508.6 1166.04 2507.12 1172.53ZM2584.08 1187.85C2582.17 1196.18 2577.49 1202.05 2570.03 1205.46C2562.58 1208.83 2553.38 1209.43 2542.43 1207.25C2530.55 1204.88 2521.74 1201.63 2516.01 1197.48L2518.44 1186.86C2522.2 1189.31 2526.38 1191.49 2530.99 1193.41C2535.6 1195.33 2540.29 1196.76 2545.04 1197.71C2552.79 1199.25 2558.96 1199.02 2563.53 1197C2568.1 1195.02 2570.95 1191.54 2572.09 1186.56C2572.84 1183.28 2572.76 1180.45 2571.83 1178.07C2570.91 1175.69 2569.04 1173.29 2566.21 1170.88C2563.34 1168.46 2558.83 1165.46 2552.69 1161.88C2544.09 1156.9 2538.29 1151.83 2535.27 1146.68C2532.24 1141.57 2531.52 1135.55 2533.11 1128.62C2534.79 1121.28 2539.02 1116.03 2545.81 1112.88C2552.6 1109.72 2560.77 1109.09 2570.32 1110.99C2580.29 1112.98 2589.05 1116.53 2596.59 1121.66L2590.78 1130.5C2583.27 1125.58 2575.6 1122.33 2567.77 1120.78C2561.62 1119.55 2556.52 1119.84 2552.48 1121.66C2548.44 1123.48 2545.91 1126.62 2544.89 1131.08C2544.14 1134.36 2544.16 1137.18 2544.97 1139.53C2545.77 1141.89 2547.5 1144.24 2550.14 1146.58C2552.77 1148.95 2556.97 1151.81 2562.72 1155.15C2572.43 1160.78 2578.79 1166.02 2581.79 1170.86C2584.8 1175.7 2585.56 1181.36 2584.08 1187.85Z" fill="#333333" stroke="black" stroke-width="1.38254"/>
<path d="M2407.56 1346.67L2718.04 1454.37C2726.93 1456.77 2731.03 1468.76 2727.16 1480.79L2680.28 1564.55C2676.4 1576.57 2665.85 1584.62 2656.96 1582.22L2445.75 1517.64L2377.65 1561.36L2396.05 1504.23L2373.03 1498.03C2364.13 1495.63 2360.04 1483.63 2363.91 1471.6L2383.71 1364.21C2387.75 1351.68 2398.14 1344.13 2407.56 1346.67Z" fill="#FF8658"/>
<path d="M2383.7 1511.15L2371.21 1507.73C2356.11 1503.6 2349.18 1486.41 2354.52 1469.85L2374.96 1360.73C2380.78 1342.66 2396.61 1332.24 2412.22 1336.52L2720.58 1444.9C2735.68 1449.03 2742.6 1466.21 2736.29 1485.79L2689.93 1568.15C2684.1 1586.22 2668.28 1596.64 2652.66 1592.36L2447.05 1529.02L2358.91 1586.3L2383.18 1511L2383.7 1511.15ZM2660.01 1573.07C2662.1 1573.64 2667.72 1570.26 2670.79 1560.73L2717.16 1478.37C2719.59 1470.84 2717.4 1465.33 2714.27 1464.47L2405.91 1356.09C2403.83 1355.52 2398.21 1358.9 2396.11 1365.43L2375.67 1474.54C2373.24 1482.07 2375.95 1487.72 2378.04 1488.29L2411.35 1497.41L2398.57 1537.06L2445.71 1506.81L2660.01 1573.07Z" fill="#FAAF3B"/>
<path d="M2489.24 1448.93L2518.2 1457.77L2504.45 1497.29C2499.5 1497.28 2494.57 1496.91 2489.65 1496.18C2484.73 1495.45 2479.2 1494.15 2473.06 1492.27C2460.16 1488.34 2451.37 1481.62 2446.71 1472.13C2442.05 1462.63 2442.02 1451.28 2446.61 1438.08C2449.54 1429.64 2453.91 1422.8 2459.7 1417.54C2465.46 1412.27 2472.27 1408.99 2480.13 1407.68C2487.97 1406.37 2496.38 1407.08 2505.37 1409.83C2514.46 1412.6 2522.38 1416.78 2529.13 1422.37L2522.35 1429.53C2515.74 1424.05 2508.89 1420.23 2501.79 1418.06C2491.4 1414.9 2482.27 1415.37 2474.37 1419.5C2466.49 1423.6 2460.74 1430.85 2457.11 1441.28C2453.3 1452.24 2453.22 1461.43 2456.88 1468.83C2460.52 1476.2 2467.78 1481.54 2478.67 1484.86C2484.57 1486.67 2490.57 1487.78 2496.66 1488.2L2505.36 1463.18L2486.3 1457.37L2489.24 1448.93ZM2523.91 1506.58L2552.14 1425.41L2562.04 1428.43L2533.81 1509.6L2523.91 1506.58ZM2583.43 1524.74L2573.52 1521.72L2598.84 1448.93L2571.82 1440.69L2574.73 1432.3L2638.63 1451.8L2635.71 1460.19L2608.74 1451.96L2583.43 1524.74Z" fill="#333333" stroke="black" stroke-width="1.21065"/>
<path d="M2439.24 1798.78L2427.64 1802.79L2353.98 1748.23L2353.52 1748.39C2357.22 1756.49 2360.34 1764.02 2362.89 1770.97L2380.53 1819.08L2371.17 1822.31L2340.14 1737.71L2351.59 1733.75L2425.04 1788.05L2425.5 1787.89C2425.04 1786.86 2423.63 1783.57 2421.24 1778.01C2418.91 1772.47 2417.34 1768.47 2416.55 1766L2398.75 1717.45L2408.21 1714.18L2439.24 1798.78ZM2496.4 1711.46C2499.54 1720.02 2498.93 1727.65 2494.59 1734.35C2490.27 1741.03 2482.51 1746.32 2471.28 1750.2L2461.05 1753.73L2473.26 1787.02L2463.14 1790.52L2432.11 1705.91L2454.7 1698.11C2476.47 1690.58 2490.37 1695.03 2496.4 1711.46ZM2457.96 1745.29L2467.06 1742.14C2476.05 1739.03 2482.03 1735.39 2485.01 1731.2C2488 1726.98 2488.36 1721.75 2486.08 1715.53C2484.03 1709.93 2480.6 1706.42 2475.8 1705C2471.03 1703.57 2464.65 1704.24 2456.64 1707.01L2445.35 1710.91L2457.96 1745.29ZM2575.14 1751.8L2518.07 1686.99L2517.57 1687.17C2520.33 1692.93 2523.21 1699.89 2526.2 1708.06L2545.94 1761.89L2536.58 1765.13L2505.56 1680.53L2520.82 1675.25L2573.98 1735.51L2574.49 1735.33L2576.72 1655.92L2591.83 1650.7L2622.86 1735.31L2612.74 1738.81L2592.74 1684.28C2590.45 1678.02 2588.25 1671.14 2586.14 1663.63L2585.63 1663.81L2583.28 1748.99L2575.14 1751.8Z" fill="#333333" stroke="black" stroke-width="1.23995"/>
</svg>
